<?xml version="1.0" encoding="utf-8"?>
<!-- Generator: Adobe Illustrator 16.0.4, SVG Export Plug-In . SVG Version: 6.00 Build 0)  -->
<!DOCTYPE svg PUBLIC "-//W3C//DTD SVG 1.1//EN" "http://www.w3.org/Graphics/SVG/1.1/DTD/svg11.dtd">
<svg version="1.1" id="Your_Icon" xmlns="http://www.w3.org/2000/svg" xmlns:xlink="http://www.w3.org/1999/xlink" x="0px" y="0px"
	 width="100px" height="100px" viewBox="0 0 100 100" enable-background="new 0 0 100 100" xml:space="preserve">
<path d="M25.432,95.065c-0.799,0-1.604-0.169-2.367-0.515c-2.049-0.93-3.362-2.973-3.362-5.224V70.989H5.734
	C2.563,70.989,0,68.42,0,65.251V10.673c0-3.17,2.563-5.738,5.734-5.738h88.528c3.168,0,5.737,2.567,5.737,5.738v54.578
	c0,3.169-2.569,5.738-5.737,5.738H55.115L29.211,93.645C28.142,94.577,26.801,95.065,25.432,95.065z M11.468,59.518h13.968
	c3.171,0,5.734,2.565,5.734,5.733v11.438l18.016-15.758c1.047-0.91,2.384-1.413,3.775-1.413h35.563v-43.11H11.468V59.518z"/>
</svg>
