<?xml version="1.0" encoding="utf-8"?>
<!-- Generator: Adobe Illustrator 16.0.4, SVG Export Plug-In . SVG Version: 6.00 Build 0)  -->
<!DOCTYPE svg PUBLIC "-//W3C//DTD SVG 1.1//EN" "http://www.w3.org/Graphics/SVG/1.1/DTD/svg11.dtd">
<svg version="1.1" id="Ebene_1" xmlns="http://www.w3.org/2000/svg" xmlns:xlink="http://www.w3.org/1999/xlink" x="0px" y="0px"
	 width="100px" height="100px" viewBox="0.5 100.5 100 100" enable-background="new 0.5 100.5 100 100" xml:space="preserve">
<g>
	<path d="M81.76,105.935l-46.727,1.117l-33.393,31.8l48.637,4.216L81.76,105.935z M41.943,124.874
		c-3.078,1.471-5.697,1.821-5.852,0.785c-0.156-1.039,2.213-3.068,5.292-4.541c3.077-1.472,5.698-1.822,5.855-0.784
		C47.395,121.37,45.023,123.402,41.943,124.874z"/>
	<path d="M0.5,143.976l24.144,41.5l46.618,9.59l-21.648-46.84L0.5,143.976z M31.484,182.354c-2.479-0.084-5.177-1.793-6.017-3.816
		c-0.849-2.019,0.474-3.586,2.954-3.502c2.48,0.085,5.172,1.792,6.016,3.812C35.282,180.87,33.957,182.439,31.484,182.354z
		 M37.243,170.529c-2.479-0.085-5.177-1.794-6.017-3.814c-0.849-2.021,0.473-3.589,2.953-3.504c2.48,0.084,5.173,1.791,6.018,3.812
		C41.043,169.04,39.715,170.611,37.243,170.529z M43.002,158.703c-2.479-0.085-5.172-1.789-6.017-3.814
		c-0.847-2.021,0.474-3.585,2.954-3.504c2.479,0.089,5.172,1.791,6.016,3.816C46.803,157.218,45.479,158.792,43.002,158.703z"/>
	<path d="M86.422,108.667l-31.799,37.495l21.66,46.864l24.217-39.03L86.422,108.667z M68.066,153.278
		c-1.621,0.557-2.781-1.281-2.596-4.106c0.189-2.82,1.652-5.561,3.271-6.117c1.621-0.556,2.781,1.286,2.596,4.108
		C71.148,149.984,69.686,152.725,68.066,153.278z M78.826,179.737c-1.58,0.646-2.846-1.116-2.824-3.949
		c0.021-2.829,1.322-5.648,2.908-6.295s2.85,1.12,2.83,3.949C81.715,176.271,80.414,179.091,78.826,179.737z M81.115,155.773
		c-1.584,0.646-2.85-1.122-2.826-3.949c0.021-2.829,1.322-5.65,2.91-6.297c1.584-0.646,2.85,1.12,2.826,3.947
		C84.004,152.306,82.703,155.122,81.115,155.773z M83.359,132.269c-1.584,0.646-2.85-1.12-2.828-3.949
		c0.023-2.829,1.328-5.65,2.908-6.295c1.584-0.65,2.854,1.118,2.83,3.947C86.25,128.797,84.943,131.622,83.359,132.269z
		 M92.838,158.099c-1.619,0.561-2.777-1.281-2.592-4.106c0.186-2.821,1.652-5.558,3.273-6.113c1.619-0.559,2.783,1.285,2.592,4.104
		C95.926,154.809,94.459,157.545,92.838,158.099z"/>
</g>
</svg>
