<?xml version="1.0" encoding="utf-8"?>
<!-- Generator: Adobe Illustrator 16.0.4, SVG Export Plug-In . SVG Version: 6.00 Build 0)  -->
<!DOCTYPE svg PUBLIC "-//W3C//DTD SVG 1.1//EN" "http://www.w3.org/Graphics/SVG/1.1/DTD/svg11.dtd">
<svg version="1.1" id="Ebene_1" xmlns="http://www.w3.org/2000/svg" xmlns:xlink="http://www.w3.org/1999/xlink" x="0px" y="0px"
	 width="100px" height="100px" viewBox="0 0 100 100" enable-background="new 0 0 100 100" xml:space="preserve">
<g display="none">
	<path display="inline" d="M89.795,29.59c0,0.928,0,1.758,0,2.686c0,27.1-20.605,58.35-58.301,58.35
		c-11.572,0-22.461-2.539-31.494-8.35c1.611,0.244,3.223,0.342,4.883,0.342c9.57,0,18.506-4.15,25.439-9.717
		c-8.887-0.098-16.553-6.152-19.092-14.258c1.27,0.244,2.539,0.391,3.809,0.391c1.855,0,3.711-0.244,5.469-0.732
		C11.133,56.445,4.053,48.145,4.053,38.184c0-0.098,0-0.098,0-0.244c2.783,1.514,5.908,2.441,9.277,2.539
		c-5.566-3.711-9.18-9.961-9.18-16.992c0-3.809,1.074-6.934,2.783-9.961C17.139,25.928,32.178,33.643,49.17,34.57
		c-0.342-1.465-0.439-3.125-0.439-4.736c0-11.328,9.131-20.459,20.459-20.459c5.908,0,11.23,2.539,15.088,6.445
		c4.59-0.928,9.033-2.637,12.939-4.98c-1.514,4.785-4.736,8.838-9.033,11.377c4.199-0.488,8.105-1.611,11.816-3.271
		C97.217,23.145,93.75,26.709,89.795,29.59z"/>
</g>
<g display="none">
	<path display="inline" d="M99.996,93.75c0,3.418-2.832,6.25-6.25,6.25H68.75V61.133h12.496l2.1-14.404H68.75V35.4
		c0-4.102,2.1-6.445,6.25-6.445h9.371V15.967c0,0-4.199-0.684-10.25-0.684c-13.721,0-20.654,7.617-20.654,18.994v12.451h-12.5
		v14.404h12.5V100H6.25C2.832,100,0,97.168,0,93.75V6.25C0,2.832,2.832,0,6.25,0h87.496c3.418,0,6.25,2.832,6.25,6.25V93.75z"/>
</g>
<g>
	<path d="M52.539,74.438c0,9.473-9.131,18.848-25.781,18.848C12.256,93.286,0,87.378,0,77.905c0-9.619,11.23-18.896,25.684-18.896
		c1.611,0,3.027,0,4.541,0c-2.002-1.953-3.467-4.248-3.467-7.178c0-1.709,0.439-3.467,1.27-4.932
		c-0.83,0.098-1.66,0.098-2.441,0.098c-11.914,0-19.922-8.447-19.922-18.994C5.664,17.7,16.65,8.813,28.467,8.813
		c6.494,0,26.172,0,26.172,0l-5.908,4.248h-8.35c5.566,2.1,8.447,8.447,8.447,15.088c0,5.518-2.979,10.254-7.373,13.623
		c-4.199,3.369-4.98,4.736-4.98,7.52c0,2.441,4.492,6.494,6.934,8.105C50.244,62.378,52.539,66.919,52.539,74.438z M45.703,75.464
		c0-0.928-0.098-1.758-0.195-2.686c-1.172-4.248-5.127-6.445-10.547-10.254c-1.953-0.586-4.15-0.928-6.494-1.074
		c-10.059,0-18.994,6.152-18.994,13.672c0,7.617,7.178,14.014,17.285,14.014C40.869,89.136,45.703,83.081,45.703,75.464z
		 M39.453,28.687C38.33,19.8,31.934,12.72,25.098,12.524c-6.689-0.244-11.23,6.592-10.059,15.381
		c1.172,8.887,7.666,16.211,14.355,16.406C36.133,44.556,40.625,37.524,39.453,28.687z M100,27.563H83.35v16.65H79.15v-16.65H62.5
		v-4.199h16.65V6.714h4.199v16.65H100V27.563z"/>
</g>
<g display="none">
	<path display="inline" d="M50,56.25L0,18.75c0-3.467,2.783-6.25,6.25-6.25h87.5c3.467,0,6.25,2.783,6.25,6.25L50,56.25z M50,67.48
		l50-37.5v51.27c0,3.467-2.783,6.25-6.25,6.25H6.25C2.783,87.5,0,84.717,0,81.25V29.98L50,67.48z"/>
</g>
<g display="none">
	<path display="inline" d="M88.672,32.865c0,22.559-12.5,39.355-30.908,39.355c-6.25,0-12.061-3.223-14.111-7.031
		c0,0-3.271,13.184-4.053,15.723c-2.441,9.033-9.717,18.066-10.303,18.75c-0.488,0.586-1.27,0.342-1.416-0.244
		c-0.098-1.172-1.953-12.598,0.244-21.875c1.025-4.639,7.275-31.25,7.275-31.25s-1.709-3.711-1.709-9.131
		c0-8.594,4.834-14.844,10.986-14.844c5.225,0,7.764,3.857,7.764,8.594c0,5.225-3.369,13.086-5.127,20.361
		c-1.367,6.152,3.125,11.133,9.18,11.133c10.889,0,18.164-14.014,18.164-30.566c0-12.646-8.447-22.021-23.828-22.021
		c-17.48,0-28.369,12.988-28.369,27.441c0,5.127,1.514,8.594,3.809,11.377c1.025,1.27,1.172,1.709,0.83,3.125
		c-0.244,1.123-0.928,3.662-1.172,4.59c-0.342,1.514-1.514,2.002-2.881,1.514c-8.008-3.369-11.719-12.158-11.719-21.973
		C11.328,19.584,25,0.004,52.295,0.004C74.316,0.004,88.672,15.873,88.672,32.865z"/>
</g>
<g display="none">
	<path display="inline" d="M59.399,100c-18.75,0-27.1-8.35-27.1-25V43.75H17.7v-14.6C30.2,25,38.55,18.75,40.649,0H55.2v25h22.949
		v18.75H55.2v25c0,10.4,2.1,14.6,12.5,14.6c6.25,0,14.6-4.199,14.6-4.199v15.43C82.3,94.58,73.95,100,59.399,100z"/>
</g>
</svg>
