<?xml version="1.0" encoding="utf-8"?>
<!-- Generator: Adobe Illustrator 15.1.0, SVG Export Plug-In . SVG Version: 6.00 Build 0)  -->
<!DOCTYPE svg PUBLIC "-//W3C//DTD SVG 1.1//EN" "http://www.w3.org/Graphics/SVG/1.1/DTD/svg11.dtd">
<svg version="1.1" id="Capa_1" xmlns="http://www.w3.org/2000/svg" xmlns:xlink="http://www.w3.org/1999/xlink" x="0px" y="0px"
	 width="130.75px" height="106.5px" viewBox="42.75 18 130.75 106.5" enable-background="new 42.75 18 130.75 106.5"
	 xml:space="preserve">
<g>
	<path d="M167.29,79.721c-0.4,0.48-1.041,0.801-1.683,0.882c-0.08,0-0.16,0-0.24,0c-0.641,0-1.201-0.161-1.682-0.562
		L108.25,33.819L52.815,80.041c-0.561,0.4-1.202,0.642-1.923,0.562c-0.641-0.081-1.282-0.401-1.682-0.882l-4.967-5.928
		c-0.881-1.042-0.721-2.723,0.32-3.604l57.598-47.985c3.365-2.804,8.812-2.804,12.176,0l19.547,16.342V22.924
		c0-1.442,1.121-2.563,2.563-2.563h15.381c1.442,0,2.563,1.122,2.563,2.563v32.685l17.544,14.58c1.041,0.881,1.201,2.563,0.32,3.604
		L167.29,79.721z M154.393,117.772c0,2.804-2.323,5.127-5.127,5.127h-30.762V92.138H97.996v30.762H67.234
		c-2.804,0-5.127-2.323-5.127-5.127V79.32c0-0.16,0.08-0.32,0.08-0.48l46.063-37.971l46.063,37.971c0.08,0.16,0.08,0.32,0.08,0.48
		V117.772z"/>
</g>
</svg>
