<?xml version="1.0" encoding="utf-8"?>
<!-- Generator: Adobe Illustrator 16.0.4, SVG Export Plug-In . SVG Version: 6.00 Build 0)  -->
<!DOCTYPE svg PUBLIC "-//W3C//DTD SVG 1.1//EN" "http://www.w3.org/Graphics/SVG/1.1/DTD/svg11.dtd">
<svg version="1.1" id="Ebene_1" xmlns="http://www.w3.org/2000/svg" xmlns:xlink="http://www.w3.org/1999/xlink" x="0px" y="0px"
	 width="100px" height="100px" viewBox="0 0 100 100" enable-background="new 0 0 100 100" xml:space="preserve">
<path  d="M94.61,2.246c1.734,0,3.145,1.41,3.145,3.144V94.61c0,1.733-1.41,3.145-3.145,3.145H5.389
	c-1.733,0-3.144-1.411-3.144-3.145V5.389c0-1.733,1.41-3.144,3.144-3.144H94.61 M94.61,0H5.389C2.413,0,0,2.413,0,5.389V94.61
	C0,97.587,2.413,100,5.389,100H94.61c2.977,0,5.39-2.413,5.39-5.39V5.389C100,2.413,97.587,0,94.61,0L94.61,0z"/>
<g>
	<path  d="M29.044,31.025l-0.079-0.013l-5.131,14.184h-2.579L16.15,31.064l-0.079,0.013l0.369,8.408v3.013
		l2.052,0.395v2.302h-7.934v-2.302l2.039-0.395v-13.75l-2.039-0.395v-2.315h2.039h5.013l4.881,14.118h0.079l4.92-14.118h7.079v2.315
		l-2.053,0.395v13.75l2.053,0.395v2.302h-7.934v-2.302l2.04-0.395v-3.013L29.044,31.025z"/>
	<path  d="M53.451,35.762c0,2.807-0.803,5.127-2.407,6.96c-1.605,1.833-3.707,2.75-6.303,2.75
		c-2.587,0-4.678-0.917-6.27-2.75c-1.592-1.833-2.388-4.153-2.388-6.96v-0.29c0-2.79,0.793-5.105,2.381-6.947
		c1.587-1.842,3.676-2.763,6.263-2.763c2.597,0,4.699,0.921,6.308,2.763c1.61,1.842,2.415,4.158,2.415,6.947V35.762z M49.623,35.446
		c0-1.982-0.413-3.592-1.237-4.829s-2.044-1.855-3.658-1.855s-2.818,0.614-3.612,1.842c-0.794,1.228-1.19,2.842-1.19,4.842v0.316
		c0,2.017,0.401,3.642,1.204,4.874c0.802,1.232,2.007,1.849,3.612,1.849c1.623,0,2.842-0.617,3.658-1.849
		c0.816-1.232,1.224-2.857,1.224-4.874V35.446z"/>
	<path  d="M63.608,26.039c2.343,0,4.271,0.748,5.79,2.243c1.517,1.496,2.275,3.415,2.275,5.757v3.171
		c0,2.351-0.759,4.269-2.275,5.756c-1.519,1.487-3.447,2.23-5.79,2.23h-8.617v-2.302l2.039-0.395v-13.75l-2.039-0.395v-2.315h2.039
		H63.608z M60.872,28.999v13.25h2.539c1.377,0,2.456-0.465,3.237-1.395c0.78-0.93,1.171-2.145,1.171-3.645v-3.197
		c0-1.482-0.391-2.688-1.171-3.618c-0.781-0.93-1.86-1.395-3.237-1.395H60.872z"/>
	<path  d="M72.858,42.893l1.618-0.316l5.065-7.039l-4.934-6.855l-1.605-0.329v-2.315h7.355v2.315l-1.566,0.171
		l2.961,4.697l2.973-4.697l-1.539-0.171v-2.315h7.381v2.315l-1.605,0.329l-4.934,6.855l5.171,7.026l1.697,0.329v2.302h-7.539v-2.302
		l1.526-0.158l-3.078-4.842l-3.093,4.842l1.54,0.158v2.302h-7.395V42.893z"/>
</g>
<g>
	<path  d="M15.25,53.184v4.227h3.631v1.495H15.25V69.66c0,1.079,0.196,1.845,0.588,2.297
		c0.391,0.452,0.913,0.679,1.563,0.679c0.295,0,0.582-0.013,0.862-0.038c0.28-0.025,0.602-0.068,0.968-0.13l0.274,1.358
		c-0.305,0.132-0.676,0.233-1.114,0.305c-0.437,0.071-0.875,0.106-1.312,0.106c-1.159,0-2.062-0.366-2.707-1.098
		c-0.646-0.732-0.969-1.893-0.969-3.479V58.905h-2.838V57.41h2.838v-4.227H15.25z"/>
	<path  d="M21.932,65.42c0-2.431,0.667-4.425,1.999-5.98c1.332-1.557,3.097-2.335,5.293-2.335
		c2.207,0,3.977,0.778,5.309,2.335c1.333,1.556,1.999,3.55,1.999,5.98v0.503c0,2.441-0.664,4.438-1.991,5.988
		s-3.09,2.326-5.287,2.326c-2.218,0-3.992-0.775-5.324-2.326c-1.333-1.551-1.999-3.547-1.999-5.988V65.42z M23.763,65.923
		c0,1.912,0.483,3.52,1.449,4.821s2.314,1.953,4.043,1.953c1.698,0,3.031-0.651,3.997-1.953s1.449-2.909,1.449-4.821V65.42
		c0-1.882-0.486-3.479-1.456-4.791c-0.972-1.312-2.312-1.968-4.021-1.968c-1.709,0-3.046,0.656-4.012,1.968
		c-0.966,1.312-1.449,2.909-1.449,4.791V65.923z"/>
	<path  d="M50.979,71.537c-0.549,0.864-1.256,1.53-2.121,1.999c-0.864,0.468-1.881,0.701-3.05,0.701
		c-1.974,0-3.517-0.737-4.63-2.212c-1.113-1.475-1.671-3.443-1.671-5.904v-0.32c0-2.634,0.558-4.742,1.671-6.323
		c1.114-1.581,2.667-2.373,4.661-2.373c1.149,0,2.146,0.242,2.99,0.725c0.844,0.483,1.546,1.173,2.106,2.067v-8.223l-2.487-0.198
		v-1.358h2.487h1.831v22.258l2.486,0.199v1.342h-4.119L50.979,71.537z M41.353,66.121c0,1.993,0.399,3.58,1.198,4.76
		c0.798,1.18,2.001,1.77,3.608,1.77c1.169,0,2.149-0.264,2.937-0.793c0.788-0.528,1.4-1.256,1.838-2.182v-7.811
		c-0.407-0.937-0.994-1.699-1.762-2.289c-0.769-0.59-1.763-0.885-2.983-0.885c-1.607,0-2.814,0.658-3.623,1.976
		c-0.808,1.318-1.213,3.028-1.213,5.134V66.121z"/>
	<path  d="M69.455,73.917c-0.122-0.56-0.209-1.042-0.26-1.449s-0.076-0.818-0.076-1.235
		c-0.61,0.864-1.424,1.581-2.441,2.15c-1.017,0.57-2.161,0.854-3.432,0.854c-1.618,0-2.869-0.417-3.754-1.251
		s-1.327-1.963-1.327-3.387c0-1.525,0.656-2.736,1.969-3.631c1.312-0.895,3.091-1.343,5.339-1.343h3.646v-2.182
		c0-1.18-0.379-2.105-1.136-2.776c-0.758-0.672-1.819-1.007-3.182-1.007c-0.916,0-1.752,0.124-2.51,0.374
		c-0.757,0.25-1.391,0.587-1.899,1.014l-0.152,2.213h-1.511l0.016-3.174c0.763-0.59,1.676-1.067,2.738-1.434s2.194-0.55,3.395-0.55
		c1.82,0,3.285,0.463,4.394,1.389c1.109,0.926,1.663,2.253,1.663,3.981v8.116c0,0.336,0.008,0.659,0.023,0.969
		c0.016,0.312,0.048,0.613,0.099,0.908l1.647,0.107v1.342H69.455z M63.444,72.62c1.321,0,2.486-0.305,3.493-0.915
		s1.734-1.398,2.182-2.364v-3.312h-3.677c-1.658,0-2.982,0.344-3.974,1.03c-0.992,0.687-1.488,1.554-1.488,2.601
		c0,0.886,0.308,1.601,0.924,2.145C61.52,72.349,62.366,72.62,63.444,72.62z"/>
	<path  d="M90.905,58.768l-1.679,0.138L82.56,76.557c-0.427,1.119-0.981,2.069-1.663,2.854
		c-0.681,0.782-1.678,1.174-2.99,1.174c-0.213,0-0.473-0.022-0.778-0.068c-0.305-0.046-0.528-0.094-0.671-0.146l0.214-1.525
		c0.122,0.021,0.318,0.044,0.588,0.069c0.27,0.024,0.46,0.038,0.571,0.038c0.804,0,1.439-0.28,1.907-0.839
		c0.468-0.561,0.88-1.287,1.235-2.183l0.854-2.212l-5.858-14.813l-1.678-0.138V57.41h5.675v1.357l-1.968,0.152l4.027,10.527
		l0.58,1.983h0.092l4.516-12.511l-2.014-0.152V57.41h5.706V58.768z"/>
</g>
</svg>
