<svg xmlns="http://www.w3.org/2000/svg" viewBox="0 0 100 100" enable-background="new 0 0 100 100"><g fill="#204a7f"><path d="M94.61,2.246c1.734,0,3.145,1.41,3.145,3.144V94.61c0,1.733-1.41,3.145-3.145,3.145H5.389
	c-1.733,0-3.144-1.411-3.144-3.145V5.389c0-1.733,1.41-3.144,3.144-3.144H94.61 M94.61,0H5.389C2.413,0,0,2.413,0,5.389V94.61
	C0,97.587,2.413,100,5.389,100H94.61c2.977,0,5.39-2.413,5.39-5.39V5.389C100,2.413,97.587,0,94.61,0L94.61,0z"/><path d="m29.04 31.02l-.079-.013-5.131 14.184h-2.579l-5.105-14.13-.079.013.369 8.408v3.01l2.052.395v2.302h-7.934v-2.302l2.039-.395v-13.75l-2.039-.395v-2.315h2.039 5.01l4.881 14.12h.079l4.92-14.12h7.079v2.315l-2.053.395v13.75l2.053.395v2.302h-7.934v-2.302l2.04-.395v-3.01l.369-8.46"/><path d="m53.45 35.762c0 2.807-.803 5.127-2.407 6.96-1.605 1.833-3.707 2.75-6.303 2.75-2.587 0-4.678-.917-6.27-2.75-1.592-1.833-2.388-4.153-2.388-6.96v-.29c0-2.79.793-5.105 2.381-6.947 1.587-1.842 3.676-2.763 6.263-2.763 2.597 0 4.699.921 6.308 2.763 1.61 1.842 2.415 4.158 2.415 6.947v.29m-3.827-.316c0-1.982-.413-3.592-1.237-4.829s-2.044-1.855-3.658-1.855-2.818.614-3.612 1.842c-.794 1.228-1.19 2.842-1.19 4.842v.316c0 2.02.401 3.642 1.204 4.874.802 1.232 2.01 1.849 3.612 1.849 1.623 0 2.842-.617 3.658-1.849.816-1.232 1.224-2.857 1.224-4.874v-.316"/><path d="m63.61 26.04c2.343 0 4.271.748 5.79 2.243 1.517 1.496 2.275 3.415 2.275 5.757v3.171c0 2.351-.759 4.269-2.275 5.756-1.519 1.487-3.447 2.23-5.79 2.23h-8.617v-2.302l2.039-.395v-13.75l-2.039-.395v-2.315h2.039 6.578m-2.736 2.96v13.25h2.539c1.377 0 2.456-.465 3.237-1.395.78-.93 1.171-2.145 1.171-3.645v-3.197c0-1.482-.391-2.688-1.171-3.618-.781-.93-1.86-1.395-3.237-1.395h-2.539"/><path d="m72.858 42.893l1.618-.316 5.065-7.04-4.934-6.855-1.605-.329v-2.315h7.355v2.315l-1.566.171 2.961 4.697 2.973-4.697-1.539-.171v-2.315h7.381v2.315l-1.605.329-4.934 6.855 5.171 7.03 1.697.329v2.302h-7.539v-2.302l1.526-.158-3.078-4.842-3.093 4.842 1.54.158v2.302h-7.395v-2.302z"/></g><g fill="#4d4c4c"><path d="m15.25 53.18v4.227h3.631v1.495h-3.631v10.754c0 1.079.196 1.845.588 2.297.391.452.913.679 1.563.679.295 0 .582-.013.862-.038.28-.025.602-.068.968-.13l.274 1.358c-.305.132-.676.233-1.114.305-.437.071-.875.106-1.312.106-1.159 0-2.062-.366-2.707-1.098-.646-.732-.969-1.893-.969-3.479v-10.755h-2.838v-1.495h2.838v-4.227h1.847z"/><path d="m21.932 65.42c0-2.431.667-4.425 1.999-5.98 1.332-1.557 3.097-2.335 5.293-2.335 2.207 0 3.977.778 5.309 2.335 1.333 1.556 1.999 3.55 1.999 5.98v.503c0 2.441-.664 4.438-1.991 5.988s-3.09 2.326-5.287 2.326c-2.218 0-3.992-.775-5.324-2.326-1.333-1.551-1.999-3.547-1.999-5.988v-.503m1.832.503c0 1.912.483 3.52 1.449 4.821s2.314 1.953 4.04 1.953c1.698 0 3.03-.651 3.997-1.953s1.449-2.909 1.449-4.821v-.503c0-1.882-.486-3.479-1.456-4.791-.972-1.312-2.312-1.968-4.02-1.968-1.709 0-3.046.656-4.01 1.968-.966 1.312-1.449 2.909-1.449 4.791v.503"/><path d="m50.979 71.54c-.549.864-1.256 1.53-2.121 1.999-.864.468-1.881.701-3.05.701-1.974 0-3.517-.737-4.63-2.212-1.113-1.475-1.671-3.443-1.671-5.904v-.32c0-2.634.558-4.742 1.671-6.323 1.114-1.581 2.667-2.373 4.661-2.373 1.149 0 2.146.242 2.99.725.844.483 1.546 1.173 2.106 2.067v-8.223l-2.487-.198v-1.358h2.487 1.831v22.258l2.486.199v1.342h-4.119l-.154-2.38m-9.626-5.416c0 1.993.399 3.58 1.198 4.76.798 1.18 2 1.77 3.608 1.77 1.169 0 2.149-.264 2.937-.793.788-.528 1.4-1.256 1.838-2.182v-7.811c-.407-.937-.994-1.699-1.762-2.289-.769-.59-1.763-.885-2.983-.885-1.607 0-2.814.658-3.623 1.976-.808 1.318-1.213 3.03-1.213 5.134v.32"/><path d="m69.45 73.917c-.122-.56-.209-1.042-.26-1.449s-.076-.818-.076-1.235c-.61.864-1.424 1.581-2.441 2.15-1.017.57-2.161.854-3.432.854-1.618 0-2.869-.417-3.754-1.251s-1.327-1.963-1.327-3.387c0-1.525.656-2.736 1.969-3.631 1.312-.895 3.091-1.343 5.339-1.343h3.646v-2.182c0-1.18-.379-2.105-1.136-2.776-.758-.672-1.819-1.01-3.182-1.01-.916 0-1.752.124-2.51.374-.757.25-1.391.587-1.899 1.014l-.152 2.213h-1.511l.016-3.174c.763-.59 1.676-1.067 2.738-1.434s2.194-.55 3.395-.55c1.82 0 3.285.463 4.394 1.389 1.109.926 1.663 2.253 1.663 3.981v8.116c0 .336.008.659.023.969.016.312.048.613.099.908l1.647.107v1.342h-3.249zm-6.01-1.297c1.321 0 2.486-.305 3.493-.915s1.734-1.398 2.182-2.364v-3.312h-3.677c-1.658 0-2.982.344-3.974 1.03-.992.687-1.488 1.554-1.488 2.601 0 .886.308 1.601.924 2.145.616.544 1.462.815 2.54.815"/><path d="m90.91 58.768l-1.679.138-6.666 17.651c-.427 1.119-.981 2.069-1.663 2.854-.681.782-1.678 1.174-2.99 1.174-.213 0-.473-.022-.778-.068-.305-.046-.528-.094-.671-.146l.214-1.525c.122.021.318.044.588.069.27.024.46.038.571.038.804 0 1.439-.28 1.907-.839.468-.561.88-1.287 1.235-2.183l.854-2.212-5.858-14.813-1.678-.138v-1.358h5.675v1.357l-1.968.152 4.03 10.527.58 1.983h.092l4.516-12.511-2.01-.152v-1.356h5.706v1.358"/></g></svg>