<?xml version="1.0" encoding="utf-8"?>
<!-- Generator: Adobe Illustrator 16.0.4, SVG Export Plug-In . SVG Version: 6.00 Build 0)  -->
<!DOCTYPE svg PUBLIC "-//W3C//DTD SVG 1.1//EN" "http://www.w3.org/Graphics/SVG/1.1/DTD/svg11.dtd">
<svg version="1.1" id="Ebene_1" xmlns="http://www.w3.org/2000/svg" xmlns:xlink="http://www.w3.org/1999/xlink" x="0px" y="0px"
	 width="100px" height="100px" viewBox="0.5 100.5 100 100" enable-background="new 0.5 100.5 100 100" xml:space="preserve">
<path d="M96.905,177.756c1.314,0,2.383,1.066,2.383,2.383c0,1.317-1.068,2.384-2.383,2.384H32.049c-1.317,0-2.383-1.066-2.383-2.384
	c0-1.316,1.065-2.383,2.383-2.383H96.905z M33.26,152.38c-1.316,0-2.383-1.066-2.383-2.383c0-1.315,1.066-2.383,2.383-2.383h64.857
	c1.315,0,2.383,1.067,2.383,2.383c0,1.316-1.067,2.383-2.383,2.383H33.26L33.26,152.38z M98.117,123.245H33.26
	c-1.316,0-2.383-1.068-2.383-2.383c0-1.315,1.066-2.383,2.383-2.383h64.857c1.315,0,2.383,1.067,2.383,2.383
	C100.5,122.177,99.433,123.245,98.117,123.245z M10.576,190.216c-5.564,0-10.076-4.512-10.076-10.077
	c0-5.564,4.512-10.076,10.076-10.076c5.565,0,10.077,4.512,10.077,10.076C20.653,185.704,16.142,190.216,10.576,190.216z
	 M15.376,179.786l-6.979-4.03c-0.062-0.036-0.133-0.054-0.203-0.054c-0.069,0-0.141,0.018-0.203,0.054
	c-0.125,0.073-0.203,0.208-0.203,0.354v8.059c0,0.146,0.078,0.279,0.203,0.353c0.126,0.073,0.281,0.073,0.407,0l6.979-4.028
	c0.126-0.073,0.204-0.207,0.204-0.354C15.581,179.993,15.503,179.859,15.376,179.786L15.376,179.786z M10.576,160.577
	c-5.564,0-10.076-4.512-10.076-10.077c0-5.564,4.512-10.076,10.076-10.076c5.565,0,10.077,4.512,10.077,10.076
	C20.653,156.065,16.142,160.577,10.576,160.577z M15.376,150.147l-6.979-4.03c-0.062-0.036-0.133-0.054-0.203-0.054
	c-0.069,0-0.141,0.019-0.203,0.054c-0.125,0.073-0.203,0.207-0.203,0.353v8.06c0,0.146,0.078,0.279,0.203,0.353
	c0.126,0.073,0.281,0.073,0.407,0l6.979-4.028c0.126-0.073,0.204-0.207,0.204-0.354C15.581,150.354,15.503,150.221,15.376,150.147
	L15.376,150.147z M10.576,130.938c-5.564,0-10.076-4.512-10.076-10.076c0-5.565,4.512-10.077,10.076-10.077
	c5.565,0,10.077,4.512,10.077,10.077C20.653,126.427,16.142,130.938,10.576,130.938z M15.376,120.509l-6.979-4.03
	c-0.062-0.036-0.133-0.054-0.203-0.054c-0.069,0-0.141,0.018-0.203,0.054c-0.125,0.073-0.203,0.207-0.203,0.353v8.062
	c0,0.146,0.078,0.279,0.203,0.353c0.126,0.073,0.281,0.072,0.407,0l6.979-4.028c0.126-0.074,0.204-0.207,0.204-0.354
	S15.503,120.582,15.376,120.509L15.376,120.509z"/>
</svg>
