<svg xmlns="http://www.w3.org/2000/svg" viewBox="0 0 100 100" enable-background="new 0 0 100 100"><path d="m1.387 92.6l6.05 6.02c1.846 1.834 4.832 1.834 6.682 0l29.847-29.699c.107-.104.182-.219.273-.328 5.499 3.219 11.888 5.103 18.728 5.103 20.458 0 37.03-16.496 37.03-36.849.001-20.356-16.578-36.852-37.03-36.852-20.453 0-37.03 16.496-37.03 36.852 0 7.06 2.035 13.642 5.499 19.246-.062.06-.137.103-.201.16l-29.85 29.699c-1.844 1.834-1.844 4.807 0 6.645m33.392-55.5c0-15.42 12.567-27.922 28.06-27.922 15.497 0 28.07 12.502 28.07 27.922 0 15.426-12.567 27.928-28.07 27.928-15.498-.003-28.06-12.505-28.06-27.928"/></svg>