<?xml version="1.0" encoding="utf-8"?>
<!-- Generator: Adobe Illustrator 16.0.4, SVG Export Plug-In . SVG Version: 6.00 Build 0)  -->
<!DOCTYPE svg PUBLIC "-//W3C//DTD SVG 1.1//EN" "http://www.w3.org/Graphics/SVG/1.1/DTD/svg11.dtd">
<svg version="1.1" id="Ebene_1" xmlns="http://www.w3.org/2000/svg" xmlns:xlink="http://www.w3.org/1999/xlink" x="0px" y="0px"
	 width="100px" height="100px" viewBox="0.5 100.5 100 100" enable-background="new 0.5 100.5 100 100" xml:space="preserve">
<path d="M71.817,155.695H29.182c-0.952,0-1.724-0.772-1.724-1.724s0.771-1.723,1.724-1.723h42.636c0.952,0,1.724,0.771,1.724,1.724
	C73.541,154.924,72.77,155.695,71.817,155.695z M71.817,165.496l-42.636-0.001c-0.952,0-1.724-0.771-1.724-1.723
	s0.771-1.723,1.724-1.723h42.636c0.952,0,1.724,0.771,1.724,1.723S72.77,165.496,71.817,165.496z M10.794,134.46H3.787
	c-0.951,0-1.723-0.771-1.723-1.723s0.771-1.723,1.723-1.723h8.334c0.041,0,0.075,0.02,0.114,0.022l5.547-13.183
	c0,0,1.858-6.101,6.112-6.101c5.276-0.002,47.936-0.002,53.213-0.002c4.461,0,6.111,6.102,6.111,6.102l5.526,13.13h8.344
	c0.968,0,1.752,0.784,1.752,1.752s-0.784,1.751-1.752,1.751h-6.871l2.619,6.229h7.663v36.314h-3.411v10.467
	c0,0.969-0.784,1.752-1.751,1.752H80.169c-0.968,0-1.752-0.783-1.752-1.752v-10.467H21.89v10.496c0,0.951-0.771,1.723-1.723,1.723
	H5.554c-0.952,0-1.724-0.771-1.724-1.724v-10.495H0.5v-36.314h7.662L10.794,134.46L10.794,134.46z M78.856,119.688l-0.119-0.298
	l-0.077-0.266c-0.345-1.195-1.176-2.479-1.554-2.643H23.988c-0.498,0.302-1.33,1.659-1.68,2.75l-0.072,0.231l-8.605,20.453h73.736
	L78.856,119.688z M5.23,172.299h90.538v-26.854H5.23V172.299L5.23,172.299z"/>
</svg>
