<?xml version="1.0" encoding="utf-8"?>
<!-- Generator: Adobe Illustrator 16.0.4, SVG Export Plug-In . SVG Version: 6.00 Build 0)  -->
<!DOCTYPE svg PUBLIC "-//W3C//DTD SVG 1.1//EN" "http://www.w3.org/Graphics/SVG/1.1/DTD/svg11.dtd">
<svg version="1.1" id="Ebene_1" xmlns="http://www.w3.org/2000/svg" xmlns:xlink="http://www.w3.org/1999/xlink" x="0px" y="0px"
	 width="100px" height="100px" viewBox="0.5 100.5 100 100" enable-background="new 0.5 100.5 100 100" xml:space="preserve">
<path d="M50.499,176.539c-14.38,0-26.04-11.66-26.04-26.041c0-14.38,11.659-26.04,26.04-26.04s26.041,11.66,26.041,26.042
	C76.539,164.881,64.881,176.539,50.499,176.539z M50.499,132.07c-10.163,0-18.43,8.267-18.43,18.43
	c0,10.164,8.267,18.431,18.43,18.431c10.163,0,18.429-8.267,18.429-18.431C68.928,140.338,60.661,132.07,50.499,132.07
	L50.499,132.07z M55.248,100.5l-3.088,17.509l7.889,1.391l3.089-17.508L55.248,100.5L55.248,100.5z M45.749,200.5l3.086-17.508
	l-7.888-1.391l-3.087,17.508L45.749,200.5z M0.5,145.752l17.507,3.086l1.391-7.889l-17.507-3.086L0.5,145.752z M100.497,155.244
	l-17.507-3.088l-1.391,7.889l17.506,3.088L100.497,155.244z M25.062,107.195L18.5,111.79l10.2,14.562l6.562-4.595L25.062,107.195
	L25.062,107.195z M75.931,193.809l6.563-4.597l-10.198-14.562l-6.563,4.597L75.931,193.809L75.931,193.809z M11.786,182.496
	l14.562-10.198l-4.594-6.562L7.191,175.934L11.786,182.496z M89.216,118.5l-14.567,10.201l4.596,6.563l14.567-10.202L89.216,118.5z"
	/>
</svg>
