<svg xmlns="http://www.w3.org/2000/svg" viewBox="0 0 256 256" enable-background="new 0 0 256 256"><g fill="#204a7f"><path d="m242.2 5c4.9 0 8.8 3.9 8.8 8.8v228.4c0 4.9-3.9 8.8-8.8 8.8h-228.4c-4.9 0-8.8-3.9-8.8-8.8v-228.4c0-4.9 3.9-8.8 8.8-8.8h228.4m0-5h-228.4c-7.6 0-13.8 6.2-13.8 13.8v228.4c0 7.6 6.2 13.8 13.8 13.8h228.4c7.6 0 13.8-6.2 13.8-13.8v-228.4c0-7.6-6.2-13.8-13.8-13.8z"/><path d="m74.4 79.4h-.2l-13.2 36.3h-6.6l-13.1-36.2h-.2l.9 21.5v7.7l5.3 1v5.9h-20.3v-5.9l5.2-1v-35.1l-5.2-1v-5.9h5.2 12.8l12.5 36.1h.2l12.6-36.1h18.1v5.9l-5.3 1v35.2l5.3 1v5.9h-20.2v-5.9l5.2-1v-7.7l1-21.7"/><path d="m136.8 91.5c0 7.2-2.1 13.1-6.2 17.8-4.1 4.7-9.5 7-16.1 7-6.6 0-12-2.3-16.1-7-4.1-4.7-6.1-10.6-6.1-17.8v-.7c0-7.1 2-13.1 6.1-17.8 4.1-4.7 9.4-7.1 16-7.1 6.6 0 12 2.4 16.1 7.1 4.1 4.7 6.2 10.6 6.2 17.8v.7zm-9.8-.8c0-5.1-1.1-9.2-3.2-12.4-2.1-3.2-5.2-4.7-9.4-4.7-4.1 0-7.2 1.6-9.2 4.7-2 3.1-3 7.3-3 12.4v.8c0 5.2 1 9.3 3.1 12.5 2.1 3.2 5.1 4.7 9.2 4.7 4.2 0 7.3-1.6 9.4-4.7 2.1-3.2 3.1-7.3 3.1-12.5v-.8"/><path d="m162.8 66.7c6 0 10.9 1.9 14.8 5.7 3.9 3.8 5.8 8.7 5.8 14.7v8.1c0 6-1.9 10.9-5.8 14.7-3.9 3.8-8.8 5.7-14.8 5.7h-22.1v-5.9l5.2-1v-35.1l-5.2-1v-5.9h5.2 16.9m-7 7.5v33.9h6.5c3.5 0 6.3-1.2 8.3-3.6 2-2.4 3-5.5 3-9.3v-8.2c0-3.8-1-6.9-3-9.3-2-2.4-4.8-3.6-8.3-3.6h-6.5z"/><path d="m186.5 109.8l4.1-.8 13-18-12.6-17.6-4.1-.8v-5.9h18.8v5.9l-4 .4 7.6 12 7.6-12-3.9-.4v-5.9h18.9v5.9l-4.1.8-12.7 17.6 13.2 18 4.3.8v5.9h-19.3v-5.9l3.9-.4-7.8-12.4-7.9 12.4 3.9.4v5.9h-18.9v-5.9"/></g><g fill="#4d4c4c"><path d="m39 136.2v10.8h9.3v3.8h-9.3v27.5c0 2.8.5 4.7 1.5 5.9 1 1.2 2.3 1.7 4 1.7.8 0 1.5 0 2.2-.1.7-.1 1.5-.2 2.5-.3l.7 3.5c-.8.3-1.7.6-2.9.8-1.1.2-2.2.3-3.4.3-3 0-5.3-.9-6.9-2.8-1.7-1.9-2.5-4.8-2.5-8.9v-27.5h-7.2v-3.9h7.3v-10.8h4.7"/><path d="m56.1 167.5c0-6.2 1.7-11.3 5.1-15.3 3.4-4 7.9-6 13.6-6 5.7 0 10.2 2 13.6 6 3.4 4 5.1 9.1 5.1 15.3v1.3c0 6.2-1.7 11.4-5.1 15.3-3.4 4-7.9 6-13.5 6-5.7 0-10.2-2-13.6-6-3.4-4-5.1-9.1-5.1-15.3v-1.3zm4.7 1.3c0 4.9 1.2 9 3.7 12.3 2.5 3.3 5.9 5 10.3 5 4.3 0 7.8-1.7 10.2-5 2.5-3.3 3.7-7.4 3.7-12.3v-1.3c0-4.8-1.2-8.9-3.7-12.3-2.5-3.4-5.9-5-10.3-5-4.4 0-7.8 1.7-10.3 5-2.5 3.4-3.7 7.4-3.7 12.3v1.3z"/><path d="m130.5 183.1c-1.4 2.2-3.2 3.9-5.4 5.1-2.2 1.2-4.8 1.8-7.8 1.8-5.1 0-9-1.9-11.9-5.7-2.9-3.8-4.3-8.8-4.3-15.1v-.8c0-6.7 1.4-12.1 4.3-16.2 2.9-4 6.8-6.1 11.9-6.1 2.9 0 5.5.6 7.7 1.9 2.2 1.2 4 3 5.4 5.3v-21.1l-6.4-.5v-3.5h6.4 4.7v57l6.4.5v3.4h-10.5l-.5-6m-24.6-13.8c0 5.1 1 9.2 3.1 12.2 2 3 5.1 4.5 9.2 4.5 3 0 5.5-.7 7.5-2 2-1.4 3.6-3.2 4.7-5.6v-20c-1-2.4-2.5-4.3-4.5-5.9-2-1.5-4.5-2.3-7.6-2.3-4.1 0-7.2 1.7-9.3 5.1-2.1 3.4-3.1 7.8-3.1 13.1v.9"/><path d="m177.8 189.2c-.3-1.4-.5-2.7-.7-3.7-.1-1-.2-2.1-.2-3.2-1.6 2.2-3.6 4-6.2 5.5-2.6 1.5-5.5 2.2-8.8 2.2-4.1 0-7.3-1.1-9.6-3.2-2.3-2.1-3.4-5-3.4-8.7 0-3.9 1.7-7 5-9.3 3.4-2.3 7.9-3.4 13.7-3.4h9.3v-5.6c0-3-1-5.4-2.9-7.1-1.9-1.7-4.7-2.6-8.1-2.6-2.3 0-4.5.3-6.4 1-1.9.6-3.6 1.5-4.9 2.6l-.4 5.7h-3.9v-8.1c2-1.5 4.3-2.7 7-3.7s5.6-1.4 8.7-1.4c4.7 0 8.4 1.2 11.2 3.6 2.8 2.4 4.3 5.8 4.3 10.2v20.8c0 .9 0 1.7.1 2.5 0 .8.1 1.6.3 2.3l4.2.3v3.4h-8.3zm-15.4-3.3c3.4 0 6.4-.8 8.9-2.3 2.6-1.6 4.4-3.6 5.6-6.1v-8.5h-9.4c-4.2 0-7.6.9-10.2 2.6-2.5 1.8-3.8 4-3.8 6.7 0 2.3.8 4.1 2.4 5.5 1.6 1.4 3.8 2.1 6.5 2.1"/><path d="m232.7 150.4l-4.3.4-17 45.2c-1.1 2.9-2.5 5.3-4.3 7.3-1.7 2-4.3 3-7.7 3-.5 0-1.2-.1-2-.2-.8-.1-1.4-.2-1.7-.4l.5-3.9c.3.1.8.1 1.5.2.7.1 1.2.1 1.5.1 2.1 0 3.7-.7 4.9-2.1 1.2-1.4 2.3-3.3 3.2-5.6l2.2-5.7-15-37.9-4.3-.4v-3.4h14.5v3.5l-5 .4 10.3 26.9 1.5 5.1h.2l11.6-32-5.2-.4v-3.5h14.6v3.4"/></g><g fill="#4f4f4f"><path d="m82.9 216.3c1.7 0 3.1.4 4.1 1.3 1 .9 1.5 2.1 1.5 3.5 0 1.5-.5 2.7-1.5 3.6-1 .9-2.3 1.3-4.1 1.3h-3.5v4.8l1.8.3v1.4h-5.9v-1.4l1.8-.3v-12.8l-1.8-.3v-1.4h1.8 5.8m-3.5 8.1h3.5c1.1 0 1.9-.3 2.5-.9.6-.6.8-1.3.8-2.2 0-.9-.3-1.7-.8-2.3s-1.4-1-2.5-1h-3.5v6.4"/><path d="m104.5 224.6c0 2.4-.7 4.4-2 5.9-1.4 1.6-3.1 2.4-5.3 2.4-2.1 0-3.8-.8-5.1-2.4-1.3-1.6-2-3.5-2-5.9v-.2c0-2.4.7-4.3 2-5.9 1.3-1.6 3-2.4 5.1-2.4 2.2 0 3.9.8 5.3 2.4 1.4 1.6 2 3.6 2 5.9v.2m-2.2-.3c0-1.9-.5-3.5-1.4-4.7-.9-1.2-2.2-1.8-3.8-1.8-1.5 0-2.7.6-3.6 1.8-.9 1.2-1.3 2.8-1.3 4.6v.3c0 1.9.4 3.5 1.3 4.7.9 1.2 2.1 1.8 3.6 1.8 1.6 0 2.9-.6 3.8-1.8.9-1.2 1.3-2.8 1.3-4.7v-.2z"/><path d="m113.1 216.3c2.1 0 3.8.7 5.1 2 1.3 1.3 1.9 3 1.9 5.1v2.2c0 2.1-.6 3.8-1.9 5.1-1.3 1.3-3 2-5.1 2h-6.8v-1.4l1.8-.3v-13l-1.8-.3v-1.4h1.8 5m-2.9 1.7v12.9h2.8c1.5 0 2.7-.5 3.6-1.5.9-1 1.3-2.3 1.3-3.8v-2.3c0-1.5-.4-2.8-1.3-3.8-.9-1-2.1-1.5-3.6-1.5h-2.8"/><path d="m134.8 221.3h-1.6l-.4-2.3c-.4-.4-.8-.6-1.3-.9-.5-.2-1.1-.3-1.9-.3-1.7 0-3 .6-3.9 1.8-.9 1.2-1.4 2.8-1.4 4.7v.3c0 1.9.4 3.5 1.3 4.7.9 1.2 2.1 1.9 3.7 1.9.7 0 1.4-.1 2-.3.6-.2 1.1-.5 1.4-.9l.4-2.3h1.6v2.9c-.5.6-1.2 1.1-2.1 1.6-.9.5-2 .7-3.3.7-2.1 0-3.9-.8-5.2-2.4-1.4-1.6-2-3.5-2-5.9v-.2c0-2.4.7-4.4 2-5.9 1.3-1.6 3.1-2.4 5.3-2.4 1.2 0 2.3.2 3.3.7.9.5 1.7 1 2.1 1.6v2.9"/><path d="m136.8 231.2l1.2-.2 5.7-14.8h1.9l5.6 14.8 1.2.2v1.4h-4.7v-1.4l1.2-.2-1.1-3h-6.5l-1.1 3 1.2.2v1.4h-4.7v-1.4zm5.2-5h5.2l-2.5-7h-.1l-2.6 7"/><path d="m165.6 221.1h-1.6l-.4-2.3c-.3-.3-.8-.5-1.3-.7-.6-.2-1.2-.3-2-.3-1.2 0-2.1.2-2.7.7-.6.5-.9 1.1-.9 1.9 0 .7.3 1.3 1 1.8.6.5 1.7.9 3.1 1.3 1.7.4 3 1.1 3.9 1.9.9.8 1.3 1.9 1.3 3.1 0 1.3-.5 2.4-1.6 3.2-1.1.8-2.5 1.2-4.2 1.2-1.3 0-2.4-.2-3.4-.6-1-.4-1.8-1-2.4-1.6v-3h1.7l.4 2.3c.4.4.9.6 1.5.9.6.2 1.3.3 2.1.3 1.1 0 2-.2 2.6-.7.6-.5 1-1.1 1-1.9 0-.8-.3-1.4-.8-1.9-.6-.5-1.6-.9-3-1.3-1.7-.4-3.1-1-4.1-1.8-1-.8-1.5-1.8-1.5-3 0-1.3.5-2.3 1.6-3.2 1.1-.8 2.5-1.3 4.2-1.3 1.1 0 2.2.2 3.1.6.9.4 1.7.9 2.3 1.4v3z"/><path d="m181 216.3v3.6h-1.9l-.1-1.9h-3.6v12.9l1.8.3v1.4h-5.9v-1.4l1.8-.3v-12.9h-3.6l-.2 1.9h-1.9v-3.6h13.6"/></g></svg>