<?xml version="1.0" encoding="utf-8"?>
<!-- Generator: Adobe Illustrator 16.0.4, SVG Export Plug-In . SVG Version: 6.00 Build 0)  -->
<!DOCTYPE svg PUBLIC "-//W3C//DTD SVG 1.1//EN" "http://www.w3.org/Graphics/SVG/1.1/DTD/svg11.dtd">
<svg version="1.1" id="Ebene_1" xmlns="http://www.w3.org/2000/svg" xmlns:xlink="http://www.w3.org/1999/xlink" x="0px" y="0px"
	 width="256px" height="256px" viewBox="0 0 256 256" enable-background="new 0 0 256 256" xml:space="preserve">
<g>
	<path fill="#204A7F" d="M242.2,5c4.9,0,8.8,3.9,8.8,8.8v228.4c0,4.9-3.9,8.8-8.8,8.8H13.8c-4.9,0-8.8-3.9-8.8-8.8V13.8
		C5,8.9,8.9,5,13.8,5H242.2 M242.2,0H13.8C6.2,0,0,6.2,0,13.8v228.4c0,7.6,6.2,13.8,13.8,13.8h228.4c7.6,0,13.8-6.2,13.8-13.8V13.8
		C256,6.2,249.8,0,242.2,0L242.2,0z"/>
</g>
<g>
	<path fill="#204A7F" d="M74.4,79.4l-0.2,0L61,115.7h-6.6L41.3,79.5l-0.2,0l0.9,21.5v7.7l5.3,1v5.9H27v-5.9l5.2-1V73.6l-5.2-1v-5.9
		h5.2h12.8l12.5,36.1h0.2l12.6-36.1h18.1v5.9l-5.3,1v35.2l5.3,1v5.9H68.2v-5.9l5.2-1v-7.7L74.4,79.4z"/>
	<path fill="#204A7F" d="M136.8,91.5c0,7.2-2.1,13.1-6.2,17.8c-4.1,4.7-9.5,7-16.1,7c-6.6,0-12-2.3-16.1-7
		c-4.1-4.7-6.1-10.6-6.1-17.8v-0.7c0-7.1,2-13.1,6.1-17.8c4.1-4.7,9.4-7.1,16-7.1c6.6,0,12,2.4,16.1,7.1c4.1,4.7,6.2,10.6,6.2,17.8
		V91.5z M127,90.7c0-5.1-1.1-9.2-3.2-12.4c-2.1-3.2-5.2-4.7-9.4-4.7c-4.1,0-7.2,1.6-9.2,4.7c-2,3.1-3,7.3-3,12.4v0.8
		c0,5.2,1,9.3,3.1,12.5c2.1,3.2,5.1,4.7,9.2,4.7c4.2,0,7.3-1.6,9.4-4.7c2.1-3.2,3.1-7.3,3.1-12.5V90.7z"/>
	<path fill="#204A7F" d="M162.8,66.7c6,0,10.9,1.9,14.8,5.7c3.9,3.8,5.8,8.7,5.8,14.7v8.1c0,6-1.9,10.9-5.8,14.7
		c-3.9,3.8-8.8,5.7-14.8,5.7h-22.1v-5.9l5.2-1V73.6l-5.2-1v-5.9h5.2H162.8z M155.8,74.2v33.9h6.5c3.5,0,6.3-1.2,8.3-3.6
		c2-2.4,3-5.5,3-9.3v-8.2c0-3.8-1-6.9-3-9.3c-2-2.4-4.8-3.6-8.3-3.6H155.8z"/>
	<path fill="#204A7F" d="M186.5,109.8l4.1-0.8l13-18L191,73.4l-4.1-0.8v-5.9h18.8v5.9l-4,0.4l7.6,12l7.6-12l-3.9-0.4v-5.9h18.9v5.9
		l-4.1,0.8L215.1,91l13.2,18l4.3,0.8v5.9h-19.3v-5.9l3.9-0.4L209.4,97l-7.9,12.4l3.9,0.4v5.9h-18.9V109.8z"/>
</g>
<g>
	<path fill="#4D4C4C" d="M39,136.2V147h9.3v3.8H39v27.5c0,2.8,0.5,4.7,1.5,5.9c1,1.2,2.3,1.7,4,1.7c0.8,0,1.5,0,2.2-0.1
		c0.7-0.1,1.5-0.2,2.5-0.3l0.7,3.5c-0.8,0.3-1.7,0.6-2.9,0.8c-1.1,0.2-2.2,0.3-3.4,0.3c-3,0-5.3-0.9-6.9-2.8
		c-1.7-1.9-2.5-4.8-2.5-8.9v-27.5H27V147h7.3v-10.8H39z"/>
	<path fill="#4D4C4C" d="M56.1,167.5c0-6.2,1.7-11.3,5.1-15.3c3.4-4,7.9-6,13.6-6c5.7,0,10.2,2,13.6,6c3.4,4,5.1,9.1,5.1,15.3v1.3
		c0,6.2-1.7,11.4-5.1,15.3c-3.4,4-7.9,6-13.5,6c-5.7,0-10.2-2-13.6-6c-3.4-4-5.1-9.1-5.1-15.3V167.5z M60.8,168.8
		c0,4.9,1.2,9,3.7,12.3c2.5,3.3,5.9,5,10.3,5c4.3,0,7.8-1.7,10.2-5c2.5-3.3,3.7-7.4,3.7-12.3v-1.3c0-4.8-1.2-8.9-3.7-12.3
		c-2.5-3.4-5.9-5-10.3-5c-4.4,0-7.8,1.7-10.3,5c-2.5,3.4-3.7,7.4-3.7,12.3V168.8z"/>
	<path fill="#4D4C4C" d="M130.5,183.1c-1.4,2.2-3.2,3.9-5.4,5.1c-2.2,1.2-4.8,1.8-7.8,1.8c-5.1,0-9-1.9-11.9-5.7
		c-2.9-3.8-4.3-8.8-4.3-15.1v-0.8c0-6.7,1.4-12.1,4.3-16.2c2.9-4,6.8-6.1,11.9-6.1c2.9,0,5.5,0.6,7.7,1.9c2.2,1.2,4,3,5.4,5.3v-21.1
		l-6.4-0.5v-3.5h6.4h4.7v57l6.4,0.5v3.4h-10.5L130.5,183.1z M105.9,169.3c0,5.1,1,9.2,3.1,12.2c2,3,5.1,4.5,9.2,4.5
		c3,0,5.5-0.7,7.5-2c2-1.4,3.6-3.2,4.7-5.6v-20c-1-2.4-2.5-4.3-4.5-5.9c-2-1.5-4.5-2.3-7.6-2.3c-4.1,0-7.2,1.7-9.3,5.1
		c-2.1,3.4-3.1,7.8-3.1,13.1V169.3z"/>
	<path fill="#4D4C4C" d="M177.8,189.2c-0.3-1.4-0.5-2.7-0.7-3.7c-0.1-1-0.2-2.1-0.2-3.2c-1.6,2.2-3.6,4-6.2,5.5
		c-2.6,1.5-5.5,2.2-8.8,2.2c-4.1,0-7.3-1.1-9.6-3.2c-2.3-2.1-3.4-5-3.4-8.7c0-3.9,1.7-7,5-9.3c3.4-2.3,7.9-3.4,13.7-3.4h9.3v-5.6
		c0-3-1-5.4-2.9-7.1c-1.9-1.7-4.7-2.6-8.1-2.6c-2.3,0-4.5,0.3-6.4,1c-1.9,0.6-3.6,1.5-4.9,2.6l-0.4,5.7h-3.9l0-8.1
		c2-1.5,4.3-2.7,7-3.7s5.6-1.4,8.7-1.4c4.7,0,8.4,1.2,11.2,3.6c2.8,2.4,4.3,5.8,4.3,10.2v20.8c0,0.9,0,1.7,0.1,2.5
		c0,0.8,0.1,1.6,0.3,2.3l4.2,0.3v3.4H177.8z M162.4,185.9c3.4,0,6.4-0.8,8.9-2.3c2.6-1.6,4.4-3.6,5.6-6.1V169h-9.4
		c-4.2,0-7.6,0.9-10.2,2.6c-2.5,1.8-3.8,4-3.8,6.7c0,2.3,0.8,4.1,2.4,5.5C157.5,185.2,159.7,185.9,162.4,185.9z"/>
	<path fill="#4D4C4C" d="M232.7,150.4l-4.3,0.4L211.4,196c-1.1,2.9-2.5,5.3-4.3,7.3c-1.7,2-4.3,3-7.7,3c-0.5,0-1.2-0.1-2-0.2
		c-0.8-0.1-1.4-0.2-1.7-0.4l0.5-3.9c0.3,0.1,0.8,0.1,1.5,0.2c0.7,0.1,1.2,0.1,1.5,0.1c2.1,0,3.7-0.7,4.9-2.1
		c1.2-1.4,2.3-3.3,3.2-5.6l2.2-5.7l-15-37.9l-4.3-0.4V147h14.5v3.5l-5,0.4l10.3,26.9l1.5,5.1h0.2l11.6-32l-5.2-0.4V147h14.6V150.4z"
		/>
</g>
<g>
	<path fill="#4F4F4F" d="M82.9,216.3c1.7,0,3.1,0.4,4.1,1.3c1,0.9,1.5,2.1,1.5,3.5c0,1.5-0.5,2.7-1.5,3.6c-1,0.9-2.3,1.3-4.1,1.3
		h-3.5v4.8l1.8,0.3v1.4h-5.9v-1.4l1.8-0.3V218l-1.8-0.3v-1.4h1.8H82.9z M79.4,224.4h3.5c1.1,0,1.9-0.3,2.5-0.9
		c0.6-0.6,0.8-1.3,0.8-2.2c0-0.9-0.3-1.7-0.8-2.3S84,218,82.9,218h-3.5V224.4z"/>
	<path fill="#4F4F4F" d="M104.5,224.6c0,2.4-0.7,4.4-2,5.9c-1.4,1.6-3.1,2.4-5.3,2.4c-2.1,0-3.8-0.8-5.1-2.4c-1.3-1.6-2-3.5-2-5.9
		v-0.2c0-2.4,0.7-4.3,2-5.9c1.3-1.6,3-2.4,5.1-2.4c2.2,0,3.9,0.8,5.3,2.4c1.4,1.6,2,3.6,2,5.9V224.6z M102.3,224.3
		c0-1.9-0.5-3.5-1.4-4.7c-0.9-1.2-2.2-1.8-3.8-1.8c-1.5,0-2.7,0.6-3.6,1.8c-0.9,1.2-1.3,2.8-1.3,4.6v0.3c0,1.9,0.4,3.5,1.3,4.7
		c0.9,1.2,2.1,1.8,3.6,1.8c1.6,0,2.9-0.6,3.8-1.8c0.9-1.2,1.3-2.8,1.3-4.7V224.3z"/>
	<path fill="#4F4F4F" d="M113.1,216.3c2.1,0,3.8,0.7,5.1,2c1.3,1.3,1.9,3,1.9,5.1v2.2c0,2.1-0.6,3.8-1.9,5.1c-1.3,1.3-3,2-5.1,2
		h-6.8v-1.4l1.8-0.3V218l-1.8-0.3v-1.4h1.8H113.1z M110.2,218v12.9h2.8c1.5,0,2.7-0.5,3.6-1.5c0.9-1,1.3-2.3,1.3-3.8v-2.3
		c0-1.5-0.4-2.8-1.3-3.8c-0.9-1-2.1-1.5-3.6-1.5H110.2z"/>
	<path fill="#4F4F4F" d="M134.8,221.3h-1.6l-0.4-2.3c-0.4-0.4-0.8-0.6-1.3-0.9c-0.5-0.2-1.1-0.3-1.9-0.3c-1.7,0-3,0.6-3.9,1.8
		c-0.9,1.2-1.4,2.8-1.4,4.7v0.3c0,1.9,0.4,3.5,1.3,4.7c0.9,1.2,2.1,1.9,3.7,1.9c0.7,0,1.4-0.1,2-0.3c0.6-0.2,1.1-0.5,1.4-0.9
		l0.4-2.3h1.6v2.9c-0.5,0.6-1.2,1.1-2.1,1.6c-0.9,0.5-2,0.7-3.3,0.7c-2.1,0-3.9-0.8-5.2-2.4c-1.4-1.6-2-3.5-2-5.9v-0.2
		c0-2.4,0.7-4.4,2-5.9c1.3-1.6,3.1-2.4,5.3-2.4c1.2,0,2.3,0.2,3.3,0.7c0.9,0.5,1.7,1,2.1,1.6V221.3z"/>
	<path fill="#4F4F4F" d="M136.8,231.2l1.2-0.2l5.7-14.8h1.9l5.6,14.8l1.2,0.2v1.4h-4.7v-1.4l1.2-0.2l-1.1-3h-6.5l-1.1,3l1.2,0.2v1.4
		h-4.7V231.2z M142,226.2h5.2l-2.5-7h-0.1L142,226.2z"/>
	<path fill="#4F4F4F" d="M165.6,221.1H164l-0.4-2.3c-0.3-0.3-0.8-0.5-1.3-0.7c-0.6-0.2-1.2-0.3-2-0.3c-1.2,0-2.1,0.2-2.7,0.7
		c-0.6,0.5-0.9,1.1-0.9,1.9c0,0.7,0.3,1.3,1,1.8c0.6,0.5,1.7,0.9,3.1,1.3c1.7,0.4,3,1.1,3.9,1.9c0.9,0.8,1.3,1.9,1.3,3.1
		c0,1.3-0.5,2.4-1.6,3.2c-1.1,0.8-2.5,1.2-4.2,1.2c-1.3,0-2.4-0.2-3.4-0.6c-1-0.4-1.8-1-2.4-1.6v-3h1.7l0.4,2.3
		c0.4,0.4,0.9,0.6,1.5,0.9c0.6,0.2,1.3,0.3,2.1,0.3c1.1,0,2-0.2,2.6-0.7c0.6-0.5,1-1.1,1-1.9c0-0.8-0.3-1.4-0.8-1.9
		c-0.6-0.5-1.6-0.9-3-1.3c-1.7-0.4-3.1-1-4.1-1.8c-1-0.8-1.5-1.8-1.5-3c0-1.3,0.5-2.3,1.6-3.2c1.1-0.8,2.5-1.3,4.2-1.3
		c1.1,0,2.2,0.2,3.1,0.6c0.9,0.4,1.7,0.9,2.3,1.4V221.1z"/>
	<path fill="#4F4F4F" d="M181,216.3v3.6h-1.9L179,218h-3.6v12.9l1.8,0.3v1.4h-5.9v-1.4l1.8-0.3V218h-3.6l-0.2,1.9h-1.9v-3.6H181z"/>
</g>
</svg>
