<?xml version="1.0" encoding="utf-8"?><!DOCTYPE svg PUBLIC "-//W3C//DTD SVG 1.1//EN" "http://www.w3.org/Graphics/SVG/1.1/DTD/svg11.dtd"><svg xmlns="http://www.w3.org/2000/svg" xmlns:xlink="http://www.w3.org/1999/xlink"><symbol viewBox="0 0 216 146" id="arrow-right"><path d="M144.988 65.667l-53.12-53.04c-1.955-2.063-4.398-3.095-7.332-3.095s-5.377 1.033-7.333 3.096l-6.192 6.11c-2.01 2.01-3.014 4.454-3.014 7.333 0 2.825 1.005 5.297 3.015 7.415L110.608 73 71.01 112.596c-2.01 2.01-3.015 4.454-3.015 7.334 0 2.823 1.005 5.295 3.015 7.414l6.192 6.11c2.01 2.01 4.455 3.015 7.333 3.015 2.88 0 5.324-1.007 7.333-3.017l53.12-53.04c2.01-2.117 3.016-4.59 3.016-7.413 0-2.88-1.006-5.323-3.016-7.333z"/></symbol><symbol viewBox="0 0 48 40" id="fa-bars"><path d="M48 6c0 1.094-.906 2-2 2H2C.906 8 0 7.094 0 6V2C0 .906.906 0 2 0h44c1.094 0 2 .906 2 2v4m0 16c0 1.094-.906 2-2 2H2c-1.094 0-2-.906-2-2v-4c0-1.094.906-2 2-2h44c1.094 0 2 .906 2 2v4m0 16c0 1.094-.906 2-2 2H2c-1.094 0-2-.906-2-2v-4c0-1.094.906-2 2-2h44c1.094 0 2 .906 2 2v4"/></symbol><symbol viewBox="42.75 18 130.75 106.5" enable-background="new 42.75 18 130.75 106.5" id="icon-home"><path d="M167.29 79.72c-.4.48-1.04.802-1.683.883h-.24c-.64 0-1.2-.16-1.682-.562L108.25 33.82 52.815 80.04c-.56.4-1.202.643-1.923.563-.64-.08-1.282-.4-1.682-.882l-4.967-5.927c-.88-1.042-.72-2.723.32-3.604l57.598-47.986c3.366-2.804 8.813-2.804 12.177 0l19.547 16.342V22.924c0-1.442 1.12-2.563 2.563-2.563h15.38c1.443 0 2.564 1.123 2.564 2.564V55.61l17.545 14.58c1.04.88 1.2 2.562.32 3.603l-4.965 5.928zm-12.897 38.052c0 2.804-2.323 5.127-5.127 5.127h-30.762V92.137H97.996V122.9H67.234c-2.804 0-5.127-2.323-5.127-5.127V79.32c0-.16.08-.32.08-.48l46.063-37.97 46.063 37.97c.08.16.08.32.08.48v38.452z"/></symbol><symbol viewBox="0 0 100 100" id="modxtoday"><path d="M94.61 2.246c1.734 0 3.145 1.41 3.145 3.144v89.22c0 1.733-1.41 3.145-3.145 3.145H5.39c-1.734 0-3.145-1.41-3.145-3.145V5.39c0-1.734 1.41-3.145 3.144-3.145h89.22m0-2.245H5.39C2.412 0 0 2.413 0 5.39v89.22C0 97.587 2.413 100 5.39 100h89.22c2.977 0 5.39-2.413 5.39-5.39V5.39C100 2.412 97.587 0 94.61 0zM29.044 31.025l-.08-.013-5.13 14.184h-2.58L16.15 31.064l-.08.013.37 8.408v3.013l2.052.395v2.302h-7.934v-2.302l2.04-.395v-13.75l-2.04-.395v-2.315h7.052l4.88 14.118h.08l4.92-14.118h7.08v2.315l-2.054.395v13.75l2.053.395v2.302h-7.935v-2.302l2.04-.395v-3.013l.37-8.46zM53.45 35.762c0 2.807-.802 5.127-2.406 6.96-1.605 1.833-3.707 2.75-6.303 2.75-2.586 0-4.677-.917-6.27-2.75-1.59-1.833-2.387-4.153-2.387-6.96v-.29c0-2.79.793-5.105 2.38-6.947 1.588-1.842 3.677-2.763 6.264-2.763 2.597 0 4.7.92 6.308 2.763 1.61 1.842 2.415 4.158 2.415 6.947v.29zm-3.827-.316c0-1.982-.413-3.592-1.237-4.83s-2.044-1.854-3.658-1.854-2.818.614-3.612 1.842c-.794 1.228-1.19 2.842-1.19 4.842v.316c0 2.017.4 3.642 1.204 4.874.802 1.232 2.007 1.85 3.612 1.85 1.623 0 2.842-.618 3.658-1.85.816-1.232 1.224-2.857 1.224-4.874v-.316zM63.608 26.04c2.343 0 4.27.747 5.79 2.242 1.517 1.496 2.275 3.415 2.275 5.757v3.17c0 2.35-.76 4.27-2.275 5.756-1.52 1.487-3.447 2.23-5.79 2.23H54.99v-2.302l2.04-.395V28.75l-2.04-.396V26.04h8.618zM60.872 29v13.25h2.54c1.376 0 2.455-.466 3.236-1.396.78-.93 1.17-2.145 1.17-3.645V34.01c0-1.482-.39-2.688-1.17-3.618-.78-.93-1.86-1.395-3.237-1.395h-2.538zM72.858 42.893l1.618-.316 5.065-7.04-4.933-6.854-1.605-.33V26.04h7.355v2.314l-1.566.17 2.962 4.698 2.973-4.697-1.54-.17v-2.316h7.382v2.314l-1.605.33-4.934 6.854 5.17 7.026 1.698.33v2.3h-7.54v-2.3l1.527-.16-3.078-4.84-3.093 4.84 1.54.16v2.3h-7.395v-2.3zM15.25 53.184v4.227h3.63v1.496h-3.63V69.66c0 1.08.196 1.845.588 2.297.39.452.913.68 1.563.68.296 0 .583-.014.863-.04.28-.024.602-.067.968-.13l.275 1.36c-.305.13-.676.232-1.114.304-.436.072-.874.107-1.31.107-1.16 0-2.063-.366-2.708-1.098-.646-.733-.97-1.894-.97-3.48V58.905h-2.837V57.41h2.838v-4.227h1.847zM21.932 65.42c0-2.43.667-4.425 2-5.98 1.33-1.557 3.096-2.335 5.292-2.335 2.207 0 3.977.778 5.31 2.335 1.332 1.556 1.998 3.55 1.998 5.98v.503c0 2.44-.664 4.438-1.99 5.988s-3.09 2.327-5.288 2.327c-2.218 0-3.992-.775-5.324-2.326-1.333-1.55-2-3.546-2-5.987v-.503zm1.83.503c0 1.912.484 3.52 1.45 4.82s2.314 1.954 4.043 1.954c1.698 0 3.03-.65 3.997-1.953s1.45-2.91 1.45-4.82v-.504c0-1.882-.487-3.48-1.457-4.79-.972-1.313-2.312-1.97-4.02-1.97-1.71 0-3.047.657-4.013 1.97-.966 1.31-1.45 2.908-1.45 4.79v.503zM50.98 71.537c-.55.864-1.257 1.53-2.122 2-.864.467-1.88.7-3.05.7-1.974 0-3.517-.737-4.63-2.212s-1.67-3.443-1.67-5.904v-.32c0-2.633.557-4.74 1.67-6.322 1.114-1.58 2.667-2.373 4.66-2.373 1.15 0 2.147.242 2.99.725.845.483 1.547 1.173 2.107 2.067v-8.223l-2.487-.198v-1.358h4.317v22.258l2.487.2v1.34h-4.12l-.153-2.38zm-9.627-5.416c0 1.994.4 3.58 1.198 4.76.8 1.18 2.002 1.77 3.61 1.77 1.168 0 2.148-.263 2.936-.792.788-.528 1.4-1.256 1.838-2.182v-7.81c-.407-.938-.994-1.7-1.762-2.29-.77-.59-1.763-.885-2.983-.885-1.608 0-2.815.66-3.624 1.977-.808 1.318-1.213 3.028-1.213 5.134v.32zM69.455 73.917c-.122-.56-.21-1.042-.26-1.45s-.076-.817-.076-1.234c-.61.864-1.425 1.58-2.442 2.15-1.017.57-2.16.854-3.432.854-1.618 0-2.87-.417-3.754-1.25s-1.327-1.964-1.327-3.388c0-1.526.656-2.737 1.97-3.632 1.31-.895 3.09-1.343 5.338-1.343h3.646v-2.182c0-1.18-.38-2.105-1.137-2.776-.758-.672-1.82-1.007-3.182-1.007-.915 0-1.75.124-2.51.374-.756.25-1.39.587-1.898 1.014l-.152 2.213h-1.51l.015-3.173c.763-.59 1.676-1.067 2.738-1.434s2.194-.55 3.395-.55c1.82 0 3.285.463 4.394 1.39 1.11.925 1.663 2.252 1.663 3.98v8.116c0 .335.008.658.023.968.016.312.048.613.1.908l1.646.107v1.342h-3.25zm-6.01-1.297c1.32 0 2.485-.305 3.492-.915s1.734-1.398 2.182-2.364v-3.31H65.44c-1.658 0-2.982.343-3.974 1.03-.992.686-1.488 1.553-1.488 2.6 0 .886.308 1.6.924 2.145.616.544 1.462.815 2.54.815zM90.905 58.768l-1.68.138-6.665 17.65c-.427 1.12-.98 2.07-1.663 2.855-.68.783-1.678 1.175-2.99 1.175-.213 0-.473-.022-.778-.068-.306-.046-.53-.094-.672-.146l.214-1.524c.122.02.318.044.588.07.27.023.46.037.57.037.805 0 1.44-.28 1.908-.84.468-.56.88-1.286 1.235-2.182l.854-2.21-5.858-14.814-1.68-.138V57.41h5.676v1.357l-1.968.152 4.027 10.526.58 1.983h.092l4.516-12.512-2.014-.152V57.41h5.705v1.358z"/></symbol><symbol viewBox="0 0 100 100" id="modxtoday-blue"><path fill="#204A7F" d="M94.61 2.246c1.734 0 3.145 1.41 3.145 3.144v89.22c0 1.733-1.41 3.145-3.145 3.145H5.39c-1.734 0-3.145-1.41-3.145-3.145V5.39c0-1.734 1.41-3.145 3.144-3.145h89.22m0-2.245H5.39C2.412 0 0 2.413 0 5.39v89.22C0 97.587 2.413 100 5.39 100h89.22c2.977 0 5.39-2.413 5.39-5.39V5.39C100 2.412 97.587 0 94.61 0z"/><g fill="#204A7F"><path d="M29.044 31.025l-.08-.013-5.13 14.184h-2.58L16.15 31.064l-.08.013.37 8.408v3.013l2.052.395v2.302h-7.934v-2.302l2.04-.395v-13.75l-2.04-.395v-2.315h7.052l4.88 14.118h.08l4.92-14.118h7.08v2.315l-2.054.395v13.75l2.053.395v2.302h-7.935v-2.302l2.04-.395v-3.013l.37-8.46zM53.45 35.762c0 2.807-.802 5.127-2.406 6.96-1.605 1.833-3.707 2.75-6.303 2.75-2.586 0-4.677-.917-6.27-2.75-1.59-1.833-2.387-4.153-2.387-6.96v-.29c0-2.79.793-5.105 2.38-6.947 1.588-1.842 3.677-2.763 6.264-2.763 2.597 0 4.7.92 6.308 2.763 1.61 1.842 2.415 4.158 2.415 6.947v.29zm-3.827-.316c0-1.982-.413-3.592-1.237-4.83s-2.044-1.854-3.658-1.854-2.818.614-3.612 1.842c-.794 1.228-1.19 2.842-1.19 4.842v.316c0 2.017.4 3.642 1.204 4.874.802 1.232 2.007 1.85 3.612 1.85 1.623 0 2.842-.618 3.658-1.85.816-1.232 1.224-2.857 1.224-4.874v-.316zM63.608 26.04c2.343 0 4.27.747 5.79 2.242 1.517 1.496 2.275 3.415 2.275 5.757v3.17c0 2.35-.76 4.27-2.275 5.756-1.52 1.487-3.447 2.23-5.79 2.23H54.99v-2.302l2.04-.395V28.75l-2.04-.396V26.04h8.618zM60.872 29v13.25h2.54c1.376 0 2.455-.466 3.236-1.396.78-.93 1.17-2.145 1.17-3.645V34.01c0-1.482-.39-2.688-1.17-3.618-.78-.93-1.86-1.395-3.237-1.395h-2.538zM72.858 42.893l1.618-.316 5.065-7.04-4.933-6.854-1.605-.33V26.04h7.355v2.314l-1.566.17 2.962 4.698 2.973-4.697-1.54-.17v-2.316h7.382v2.314l-1.605.33-4.934 6.854 5.17 7.026 1.698.33v2.3h-7.54v-2.3l1.527-.16-3.078-4.84-3.093 4.84 1.54.16v2.3h-7.395v-2.3z"/></g><g fill="#4D4C4C"><path d="M15.25 53.184v4.227h3.63v1.496h-3.63V69.66c0 1.08.196 1.845.588 2.297.39.452.913.68 1.563.68.296 0 .583-.014.863-.04.28-.024.602-.067.968-.13l.275 1.36c-.305.13-.676.232-1.114.304-.436.072-.874.107-1.31.107-1.16 0-2.063-.366-2.708-1.098-.646-.733-.97-1.894-.97-3.48V58.905h-2.837V57.41h2.838v-4.227h1.847zM21.932 65.42c0-2.43.667-4.425 2-5.98 1.33-1.557 3.096-2.335 5.292-2.335 2.207 0 3.977.778 5.31 2.335 1.332 1.556 1.998 3.55 1.998 5.98v.503c0 2.44-.664 4.438-1.99 5.988s-3.09 2.327-5.288 2.327c-2.218 0-3.992-.775-5.324-2.326-1.333-1.55-2-3.546-2-5.987v-.503zm1.83.503c0 1.912.484 3.52 1.45 4.82s2.314 1.954 4.043 1.954c1.698 0 3.03-.65 3.997-1.953s1.45-2.91 1.45-4.82v-.504c0-1.882-.487-3.48-1.457-4.79-.972-1.313-2.312-1.97-4.02-1.97-1.71 0-3.047.657-4.013 1.97-.966 1.31-1.45 2.908-1.45 4.79v.503zM50.98 71.537c-.55.864-1.257 1.53-2.122 2-.864.467-1.88.7-3.05.7-1.974 0-3.517-.737-4.63-2.212s-1.67-3.443-1.67-5.904v-.32c0-2.633.557-4.74 1.67-6.322 1.114-1.58 2.667-2.373 4.66-2.373 1.15 0 2.147.242 2.99.725.845.483 1.547 1.173 2.107 2.067v-8.223l-2.487-.198v-1.358h4.317v22.258l2.487.2v1.34h-4.12l-.153-2.38zm-9.627-5.416c0 1.994.4 3.58 1.198 4.76.8 1.18 2.002 1.77 3.61 1.77 1.168 0 2.148-.263 2.936-.792.788-.528 1.4-1.256 1.838-2.182v-7.81c-.407-.938-.994-1.7-1.762-2.29-.77-.59-1.763-.885-2.983-.885-1.608 0-2.815.66-3.624 1.977-.808 1.318-1.213 3.028-1.213 5.134v.32zM69.455 73.917c-.122-.56-.21-1.042-.26-1.45s-.076-.817-.076-1.234c-.61.864-1.425 1.58-2.442 2.15-1.017.57-2.16.854-3.432.854-1.618 0-2.87-.417-3.754-1.25s-1.327-1.964-1.327-3.388c0-1.526.656-2.737 1.97-3.632 1.31-.895 3.09-1.343 5.338-1.343h3.646v-2.182c0-1.18-.38-2.105-1.137-2.776-.758-.672-1.82-1.007-3.182-1.007-.915 0-1.75.124-2.51.374-.756.25-1.39.587-1.898 1.014l-.152 2.213h-1.51l.015-3.173c.763-.59 1.676-1.067 2.738-1.434s2.194-.55 3.395-.55c1.82 0 3.285.463 4.394 1.39 1.11.925 1.663 2.252 1.663 3.98v8.116c0 .335.008.658.023.968.016.312.048.613.1.908l1.646.107v1.342h-3.25zm-6.01-1.297c1.32 0 2.485-.305 3.492-.915s1.734-1.398 2.182-2.364v-3.31H65.44c-1.658 0-2.982.343-3.974 1.03-.992.686-1.488 1.553-1.488 2.6 0 .886.308 1.6.924 2.145.616.544 1.462.815 2.54.815zM90.905 58.768l-1.68.138-6.665 17.65c-.427 1.12-.98 2.07-1.663 2.855-.68.783-1.678 1.175-2.99 1.175-.213 0-.473-.022-.778-.068-.306-.046-.53-.094-.672-.146l.214-1.524c.122.02.318.044.588.07.27.023.46.037.57.037.805 0 1.44-.28 1.908-.84.468-.56.88-1.286 1.235-2.182l.854-2.21-5.858-14.814-1.68-.138V57.41h5.676v1.357l-1.968.152 4.027 10.526.58 1.983h.092l4.516-12.512-2.014-.152V57.41h5.705v1.358z"/></g></symbol><symbol viewBox="0.5 100.5 100 100" enable-background="new 0.5 100.5 100 100" id="play"><path d="M89.656 156.523l-72.29 43.374c-1.203 0-1.807.603-3.01.603-3.014 0-5.423-2.41-5.423-5.422v-89.156c0-3.012 2.41-5.422 5.422-5.422 1.204 0 1.808.603 3.012 1.205l72.29 42.77c1.807 1.205 2.41 3.615 2.41 6.024 0 2.41-.603 4.82-2.41 6.023z"/></symbol><symbol viewBox="0 0 100 100" id="playbutton"><circle cx="50" cy="50" r="50"/><path fill="#fff" d="M69.072 52.318L41.247 69.012c-.463 0-.696.233-1.16.233-1.16 0-2.087-.927-2.087-2.086V32.84c0-1.16.928-2.086 2.088-2.086.463 0 .696.23 1.16.463L69.072 47.68c.695.464.927 1.39.927 2.318 0 .93-.232 1.856-.928 2.32z"/></symbol><symbol viewBox="0.5 100.5 100 100" enable-background="new 0.5 100.5 100 100" id="playlist"><path d="M96.905 177.756c1.314 0 2.383 1.066 2.383 2.383 0 1.316-1.068 2.383-2.383 2.383H32.05c-1.318 0-2.384-1.066-2.384-2.384 0-1.317 1.065-2.384 2.383-2.384h64.855zM33.26 152.38c-1.316 0-2.383-1.066-2.383-2.383 0-1.315 1.066-2.383 2.383-2.383h64.857c1.315 0 2.383 1.067 2.383 2.383s-1.067 2.383-2.383 2.383H33.26zm64.857-29.135H33.26c-1.316 0-2.383-1.068-2.383-2.383s1.066-2.383 2.383-2.383h64.857c1.315 0 2.383 1.066 2.383 2.382 0 1.315-1.067 2.383-2.383 2.383zm-87.54 66.97C5.01 190.216.5 185.706.5 180.14c0-5.565 4.512-10.077 10.076-10.077 5.565 0 10.077 4.512 10.077 10.076 0 5.564-4.51 10.076-10.077 10.076zm4.8-10.43l-6.98-4.03c-.062-.035-.133-.053-.203-.053s-.14.018-.203.054c-.124.073-.202.208-.202.354v8.06c0 .145.078.278.203.352.127.073.282.073.408 0l6.98-4.028c.125-.073.203-.207.203-.354s-.077-.28-.204-.354zm-4.8-19.208C5.01 160.577.5 156.065.5 150.5c0-5.564 4.512-10.076 10.076-10.076 5.565 0 10.077 4.512 10.077 10.076 0 5.565-4.51 10.077-10.077 10.077zm4.8-10.43l-6.98-4.03c-.062-.036-.133-.054-.203-.054s-.14.02-.203.054c-.124.073-.202.207-.202.353v8.06c0 .146.078.28.203.353.127.073.282.073.408 0l6.98-4.028c.125-.073.203-.207.203-.354 0-.146-.077-.28-.204-.353zm-4.8-19.21C5.01 130.938.5 126.428.5 120.863c0-5.565 4.512-10.077 10.076-10.077 5.565 0 10.077 4.512 10.077 10.077s-4.51 10.076-10.077 10.076zm4.8-10.428l-6.98-4.03c-.062-.037-.133-.055-.203-.055s-.14.018-.203.054c-.124.072-.202.206-.202.352v8.062c0 .146.078.28.203.353.127.073.282.072.408 0l6.98-4.028c.125-.075.203-.208.203-.355s-.077-.283-.204-.356z"/></symbol><symbol viewBox="0 0 100 100" enable-background="new 0 0 100 100" id="search"><path d="M1.387 92.6l6.05 6.02c1.846 1.834 4.832 1.834 6.682 0l29.846-29.7c.107-.103.182-.218.273-.327 5.498 3.22 11.887 5.103 18.727 5.103 20.458 0 37.03-16.496 37.03-36.85 0-20.355-16.578-36.85-37.03-36.85-20.453 0-37.03 16.495-37.03 36.85 0 7.06 2.035 13.643 5.5 19.247-.063.06-.138.103-.202.16l-29.85 29.7c-1.844 1.833-1.844 4.806 0 6.644m33.392-55.5c0-15.42 12.567-27.922 28.06-27.922 15.497 0 28.07 12.502 28.07 27.922 0 15.426-12.567 27.928-28.07 27.928-15.498-.003-28.06-12.505-28.06-27.928"/></symbol></svg>