<?xml version="1.0" encoding="utf-8"?>
<!-- Generator: Adobe Illustrator 20.0.0, SVG Export Plug-In . SVG Version: 6.00 Build 0)  -->
<svg version="1.1" xmlns="http://www.w3.org/2000/svg" xmlns:xlink="http://www.w3.org/1999/xlink" x="0px" y="0px"
	 viewBox="0 0 1240 480" enable-background="new 0 0 1240 480" xml:space="preserve">
<g id="Layer_1">
</g>
<g id="Layer_2">
</g>
<g id="Layer_3">
	<g>
		<g>
			<path d="M572.8,104.9l-10,30.2h-12.8L582.6,39h15l32.8,96.1h-13.3l-10.3-30.2H572.8z M604.3,95.2l-9.4-27.7
				c-2.1-6.3-3.6-12-5-17.5h-0.3c-1.4,5.7-3,11.6-4.8,17.4l-9.4,27.8H604.3z"/>
			<path d="M644.5,135.2V39h13.5l30.8,48.6c7.1,11.3,12.7,21.4,17.3,31.2l0.3-0.1c-1.1-12.8-1.4-24.5-1.4-39.5V39h11.7v96.1h-12.6
				l-30.5-48.8c-6.7-10.7-13.1-21.7-18-32.1l-0.4,0.1c0.7,12.1,1,23.7,1,39.6v41.1H644.5z"/>
			<path d="M758.8,135.2V94.4L728.4,39h14.1L756,65.6c3.7,7.3,6.6,13.1,9.6,19.8h0.3c2.7-6.3,6-12.6,9.7-19.8L789.4,39h14.1
				l-32.2,55.2v40.9H758.8z"/>
		</g>
		<g>
			<path d="M802.7,417.4c5.6,3.4,13.7,6.3,22.2,6.3c12.7,0,20.1-6.7,20.1-16.4c0-9-5.1-14.1-18.1-19.1
				c-15.7-5.6-25.4-13.7-25.4-27.2c0-15,12.4-26.1,31.1-26.1c9.8,0,17,2.3,21.3,4.7l-3.4,10.1c-3.1-1.7-9.6-4.6-18.3-4.6
				c-13.1,0-18.1,7.8-18.1,14.4c0,9,5.8,13.4,19.1,18.5c16.3,6.3,24.5,14.1,24.5,28.2c0,14.8-11,27.7-33.7,27.7
				c-9.3,0-19.4-2.7-24.5-6.1L802.7,417.4z"/>
			<path d="M887.1,336.4v96.1h-12.4v-96.1H887.1z"/>
			<path d="M902.2,425.3l53.3-78v-0.4h-48.8v-10.4h64.9v7.6l-53.1,77.7v0.4h53.8v10.4h-70.2V425.3z"/>
			<path d="M1037.4,387.5h-37.4v34.7h41.6v10.4h-54.1v-96.1h51.9v10.4h-39.5v30.4h37.4V387.5z"/>
		</g>
		<g>
			<path d="M549.2,273.2c6,3.4,14.7,6.3,23.9,6.3c13.7,0,21.6-6.7,21.6-16.4c0-9-5.5-14.1-19.5-19.1c-16.9-5.6-27.3-13.7-27.3-27.2
				c0-15,13.3-26.1,33.4-26.1c10.6,0,18.3,2.3,22.9,4.7l-3.7,10.1c-3.4-1.7-10.3-4.6-19.6-4.6c-14.1,0-19.5,7.8-19.5,14.4
				c0,9,6.3,13.4,20.6,18.5c17.5,6.3,26.4,14.1,26.4,28.2c0,14.8-11.8,27.7-36.2,27.7c-10,0-20.9-2.7-26.4-6.1L549.2,273.2z"/>
			<path d="M698.9,285.2c-4.9,2.3-14.7,4.6-27.3,4.6c-29.1,0-51.1-17.1-51.1-48.6c0-30.1,21.9-50.5,54-50.5c12.9,0,21,2.6,24.5,4.3
				l-3.2,10.1c-5.1-2.3-12.3-4-20.9-4c-24.2,0-40.3,14.4-40.3,39.6c0,23.5,14.6,38.7,39.7,38.7c8.1,0,16.4-1.6,21.8-4L698.9,285.2z"
				/>
			<path d="M715.6,193.5c6.7-1.3,16.4-2,25.6-2c14.3,0,23.5,2.4,29.9,7.8c5.2,4.3,8.1,10.8,8.1,18.3c0,12.7-8.6,21.1-19.5,24.5v0.4
				c8,2.6,12.7,9.4,15.2,19.4c3.4,13.4,5.8,22.7,8,26.4h-13.8c-1.7-2.7-4-11-6.9-23c-3.1-13.3-8.6-18.3-20.7-18.7h-12.6v41.6h-13.3
				V193.5z M728.9,237.3h13.7c14.3,0,23.3-7.3,23.3-18.3c0-12.4-9.7-17.8-23.8-18c-6.4,0-11,0.6-13.2,1.1V237.3z"/>
			<path d="M851.7,243.3h-40.2v34.7h44.8v10.4h-58.1v-96.1H854v10.4h-42.5V233h40.2V243.3z"/>
			<path d="M927.1,243.3h-40.2v34.7h44.8v10.4h-58.1v-96.1h55.8v10.4h-42.5V233h40.2V243.3z"/>
			<path d="M949,288.3v-96.1h14.6l33.1,48.6c7.7,11.3,13.7,21.4,18.6,31.2l0.3-0.1c-1.2-12.8-1.5-24.5-1.5-39.5v-40.2h12.6v96.1
				h-13.5l-32.8-48.8c-7.2-10.7-14.1-21.7-19.3-32.1l-0.5,0.1c0.8,12.1,1.1,23.7,1.1,39.6v41.1H949z"/>
		</g>
		<g>
			<g>
				<path fill="#F3702C" d="M215.3,440.9c-9.4,0-17-7.6-17-17l0.1-367.6c0-9.3,7.6-17,17-17l279.5,0.1c9.4,0,17,7.6,17,17L511.8,424
					c0,9.3-7.6,17-17,17L215.3,440.9z"/>
			</g>
			<defs>
				<filter id="Adobe_OpacityMaskFilter" filterUnits="userSpaceOnUse" x="198.3" y="39.4" width="313.6" height="401.6">
					
						<feColorMatrix  type="matrix" values="-1 0 0 0 1  0 -1 0 0 1  0 0 -1 0 1  0 0 0 1 0" color-interpolation-filters="sRGB" result="source"/>
				</filter>
			</defs>
			<mask maskUnits="userSpaceOnUse" x="198.3" y="39.4" width="313.6" height="401.6" id="SVGID_1_">
				<g filter="url(#Adobe_OpacityMaskFilter)">
					
						<image overflow="visible" width="1324" height="1690" xlink:href="C9CA5370683283EE.jpg"  transform="matrix(0.24 0 0 0.24 196.2998 37.3886)">
					</image>
				</g>
			</mask>
			<g opacity="0.18" mask="url(#SVGID_1_)">
				<path fill="#FFFFFF" d="M215.3,440.9c-9.4,0-17-7.6-17-17l0.1-367.6c0-9.3,7.6-17,17-17l279.5,0.1c9.4,0,17,7.6,17,17L511.8,424
					c0,9.3-7.6,17-17,17L215.3,440.9z"/>
			</g>
		</g>
		<g>
			<path fill="#FFFFFF" d="M232.7,77.6c0-1.7,1.4-3,3-3l241.9,0c1.6,0,3,1.4,3,3l-0.1,323.9c0,1.6-1.4,3-3,3l-241.9,0
				c-1.7,0-3-1.4-3-3L232.7,77.6z"/>
		</g>
		<g>
			<g>
				<g>
					<circle fill="#F1F2F2" cx="355.7" cy="425.5" r="9.3"/>
				</g>
				<defs>
					<filter id="Adobe_OpacityMaskFilter_1_" filterUnits="userSpaceOnUse" x="346.5" y="416.2" width="18.5" height="18.5">
						
							<feColorMatrix  type="matrix" values="-1 0 0 0 1  0 -1 0 0 1  0 0 -1 0 1  0 0 0 1 0" color-interpolation-filters="sRGB" result="source"/>
					</filter>
				</defs>
				<mask maskUnits="userSpaceOnUse" x="346.5" y="416.2" width="18.5" height="18.5" id="SVGID_2_">
					<g filter="url(#Adobe_OpacityMaskFilter_1_)">
						
							<image overflow="visible" width="94" height="94" xlink:href="C9CA5370683283F2.jpg"  transform="matrix(0.24 0 0 0.24 344.4678 414.225)">
						</image>
					</g>
				</mask>
				<g opacity="0.18" mask="url(#SVGID_2_)">
					<circle fill="#FFFFFF" cx="355.7" cy="425.5" r="9.3"/>
				</g>
			</g>
		</g>
		<path d="M363.7,391.8c-3.4,0-15.7,0-19.6,0c-37.9-65.6-51.3-87.9-93.2-145.8c5.3-18.7,13.4-49,17.8-62.4
			c20.5,44.6,71.3,125.7,85.1,155.2C386.4,287,518.4,63.2,536.6,40.1c0,9.7,0,11.1,0,20.5"/>
	</g>
</g>
</svg>
