<?xml version="1.0" encoding="utf-8"?>
<!-- Generator: Adobe Illustrator 20.0.0, SVG Export Plug-In . SVG Version: 6.00 Build 0)  -->
<svg version="1.1" id="Layer_1" xmlns="http://www.w3.org/2000/svg" xmlns:xlink="http://www.w3.org/1999/xlink" x="0px" y="0px"
	 viewBox="0 0 1240 480" style="enable-background:new 0 0 1240 480;" xml:space="preserve">
<style type="text/css">
	.st0{fill:url(#SVGID_1_);}
	.st1{opacity:0.15;enable-background:new    ;}
	.st2{fill:url(#SVGID_2_);}
	.st3{fill:url(#SVGID_3_);}
	.st4{fill:url(#SVGID_4_);}
</style>
<g>
	<g id="Layer_1_1_">
		
			<linearGradient id="SVGID_1_" gradientUnits="userSpaceOnUse" x1="368.4793" y1="-62.6283" x2="244.9117" y2="17.8594" gradientTransform="matrix(1 0 0 -1 0 100)">
			<stop  offset="0" style="stop-color:#80C3E6"/>
			<stop  offset="1" style="stop-color:#3380C2"/>
		</linearGradient>
		<polygon class="st0" points="327.5,211.6 396.7,100.8 230.1,100.8 207.1,137.7 		"/>
		<polygon class="st1" points="207.1,137.7 218.9,118.8 327.5,211.6 		"/>
		
			<linearGradient id="SVGID_2_" gradientUnits="userSpaceOnUse" x1="390.1563" y1="-248.4525" x2="297.8025" y2="-187.4517" gradientTransform="matrix(1 0 0 -1 0 100)">
			<stop  offset="0" style="stop-color:#F38649"/>
			<stop  offset="0.18" style="stop-color:#F28147"/>
			<stop  offset="0.41" style="stop-color:#EF7242"/>
			<stop  offset="0.65" style="stop-color:#EA5A3A"/>
			<stop  offset="0.91" style="stop-color:#E4382E"/>
			<stop  offset="1" style="stop-color:#E12A29"/>
		</linearGradient>
		<polygon class="st2" points="364.1,412.5 364.1,245.9 328.1,223.5 252.6,342.9 		"/>
		<polygon class="st1" points="252.6,342.9 271.2,354.5 328.1,223.5 		"/>
		
			<linearGradient id="SVGID_3_" gradientUnits="userSpaceOnUse" x1="85.7825" y1="-118.1409" x2="262.4958" y2="-7.7212" gradientTransform="matrix(1 0 0 -1 0 100)">
			<stop  offset="0" style="stop-color:#42AB4A"/>
			<stop  offset="1" style="stop-color:#ADD155"/>
		</linearGradient>
		<polygon class="st3" points="95.7,67.5 95.7,234.1 134.3,256.5 327.4,211.6 		"/>
		
			<linearGradient id="SVGID_4_" gradientUnits="userSpaceOnUse" x1="124.366" y1="-315.7926" x2="268.0253" y2="-85.8959" gradientTransform="matrix(1 0 0 -1 0 100)">
			<stop  offset="0" style="stop-color:#42AB4A"/>
			<stop  offset="1" style="stop-color:#ADD155"/>
		</linearGradient>
		<polygon class="st4" points="133.5,269.2 64.2,378.2 230.8,378.2 328.2,223.5 		"/>
		<path d="M428.6,318.5h21.6l11-136h-21.9v-19h49l44.4,106.1c1.6,4.1,2.9,8.3,3.9,12.6h0.5c1-4.3,2.4-8.5,3.9-12.6l44.4-106.1h49v19
			h-22.1l11,136H645v19.2h-66.8v-19.2h20.9l-7.8-104.2c0-4.8,0.2-9.6,0.7-14.3h-0.7c-1.1,4.5-2.4,9-3.9,13.3L547.6,305H526
			l-39.7-91.6c-1.6-4.4-2.9-8.8-3.9-13.3h-0.7c0.5,4.7,0.8,9.5,0.7,14.3l-7.8,104.2h20.9v19.2h-66.8V318.5L428.6,318.5z"/>
		<path d="M747.4,160.5c48.5-0.7,88.3,38.1,89,86.5c0,0.8,0,1.6,0,2.4c0,51.4-39,91.3-89,91.3c-50,0-88.8-40.1-88.8-91.3
			c-0.7-48.4,37.9-88.2,86.2-88.9C745.6,160.5,746.5,160.5,747.4,160.5z M747.4,318.8c35.1,0,63.5-30.1,63.5-69.4
			c0-38-28.4-67.2-63.5-67.2c-35.1,0-63.7,29.1-63.7,67.2C683.6,288.7,712,318.8,747.4,318.8z"/>
		<path d="M852.7,318.5h21.5v-136h-21.6v-19h73.8c12.4-0.5,24.8,0.9,36.8,4.2c33.1,10.4,54.7,40.5,54.7,83s-20.9,71.6-54.7,82.4
			c-11.8,3.5-24.2,5.1-36.5,4.7h-74V318.5L852.7,318.5z M925.3,317.5c10,0.4,20-1.1,29.4-4.5c23.3-8.1,37.8-30.6,37.8-62.5
			S978,196.1,955,187.7c-9.6-3.1-19.6-4.5-29.7-4h-26.5v133.8L925.3,317.5L925.3,317.5z"/>
		<path d="M1026.6,318.5h16.2l44.6-68.9l-43.9-67.2h-15.9v-19h54.8v19h-12.9l28.7,45.7c1.6,2.2,3.1,4.5,4.4,7h0.5
			c1.2-2.4,2.6-4.8,4.2-7l27.8-45.7h-12.4v-19h53.1v19h-16.2l-45,69.4l44.1,66.6h16.4v19.2h-54.8v-19.2h12.6l-29.1-45.4
			c-2.7-3.9-4.4-7.2-4.4-7.2h-0.5c-0.2,0-1.5,3.2-3.9,7.2l-27.8,45.4h12.6v19.2h-53.3V318.5L1026.6,318.5z"/>
	</g>
</g>
</svg>
