<?xml version="1.0" encoding="utf-8"?>
<!-- Generator: Adobe Illustrator 20.0.0, SVG Export Plug-In . SVG Version: 6.00 Build 0)  -->
<svg version="1.1" id="Layer_1" xmlns="http://www.w3.org/2000/svg" xmlns:xlink="http://www.w3.org/1999/xlink" x="0px" y="0px"
	 viewBox="0 0 320 124" style="enable-background:new 0 0 320 124;" xml:space="preserve">
<style type="text/css">
	.st0{fill:#0087CA;}
</style>
<g>
	<path class="st0" d="M198.1,74.8c-1.3,0-2.4,1.1-2.4,2.5c0,1.4,1.1,2.5,2.5,2.5c1.3,0,2.4-1.1,2.4-2.5
		C200.5,75.9,199.4,74.8,198.1,74.8"/>
	<polygon class="st0" points="24.1,34.5 13.4,34.5 12.8,34.5 12.8,34.9 12.8,88.7 12.8,89.5 13.4,89.5 24.1,89.5 24.4,89.5 
		24.4,88.7 24.4,84.8 24.4,84.3 24.1,84.3 19.4,84.3 19.1,84.3 19.1,84 19.1,40.2 19.1,40 19.1,39.7 19.4,39.7 24.1,39.7 24.4,39.7 
		24.4,38.8 24.4,34.9 24.4,34.5 	"/>
	<polygon class="st0" points="69.8,34.5 59.1,34.5 58.8,34.5 58.8,34.9 58.8,38.8 58.8,39.7 59.1,39.7 63.9,39.7 64.1,39.7 64.1,40 
		64.1,84 64.1,84.3 63.9,84.3 63.6,84.3 59.1,84.3 58.8,84.3 58.8,84.8 58.8,88.7 58.8,89.5 59.1,89.5 69.8,89.5 70.5,89.5 
		70.5,88.7 70.5,34.9 70.5,34.5 	"/>
	<polygon class="st0" points="33.1,48.8 32.6,48.9 32.6,49.5 32.6,78.8 32.6,79.9 33.1,79.9 37.9,79.9 38.4,79.9 38.4,78.8 
		38.4,48.8 38.4,47.9 37.7,48.1 	"/>
	<polygon class="st0" points="45.4,46.8 44.8,46.9 44.8,47.5 44.8,78.8 44.8,79.9 45.5,79.9 50.6,79.9 51.2,79.9 51.2,78.8 
		51.2,46.7 51.2,46 51.2,45.9 50.4,46 	"/>
	<path class="st0" d="M222.4,79.3c-0.5-1.3-0.6-3-0.6-6.6v-26l-3.1-0.5v10.4c0,0.7,0,1.4,0,2c-1.4-1.4-3.5-2.2-5.8-2.2
		c-1.9,0-3.5,0.6-5.1,2c-2.7,2.2-4,5.6-4,10.1c0,3.4,0.8,6.3,2.2,8.3c1.6,2.3,4,3.4,7,3.4c2.4,0,4.4-0.8,5.8-2.4
		c0.1,0.8,0.4,1.6,0.5,1.9l0.1,0.2h3.2L222.4,79.3z M213.1,77.3c-2.2,0-3.7-0.9-4.8-2.7c-0.7-1.2-1.1-3.5-1.1-6.3
		c0-3.2,0.5-5.2,1.7-7c1-1.5,2.5-2.3,4.3-2.3c2.4,0,4.2,0.8,5.4,2.4v12.8C217.6,76.1,215.6,77.3,213.1,77.3"/>
	<polygon class="st0" points="227.8,79.8 231,79.8 231,56.2 227.8,56.7 	"/>
	<path class="st0" d="M229.4,47.6c-1.3,0-2.3,1.1-2.3,2.4c0,1.3,1.1,2.4,2.3,2.4c1.3,0,2.3-1.1,2.3-2.4
		C231.7,48.6,230.7,47.6,229.4,47.6"/>
	<path class="st0" d="M255.1,58.7l0.3-0.3l-2-2.1l-0.3,0.2c-1,0.7-1.8,1-2.8,1c-1.2,0-2-0.3-2.8-0.6c-0.9-0.3-2-0.7-3.7-0.7
		c-5,0-8.3,3.2-8.3,7.8c0,2.8,1.8,5.3,4.5,6.5c-2.4,0.9-3.5,2.1-3.5,3.8c0,1.2,0.6,3.3,4.3,3.3c0.3,0,0.8,0,1.4,0
		c0.8,0,1.8-0.1,2.6-0.1c2.1,0,3.6,0.3,4.4,1c0.9,0.7,1.1,1.9,1.1,2.7c0,2.9-1.9,4.4-5.8,4.4c-2.1,0-3.8-0.4-5-1.1
		c-0.9-0.6-1.4-1.6-1.4-2.8c0-0.7,0.3-1.5,0.6-2l0.3-0.6l-3.4,0.3l-0.1,0.2c-0.4,0.9-0.5,1.7-0.5,2.6c0,5.5,6.8,6.1,9.7,6.1
		c5.8,0,9-2.6,9-7.3c0-2.1-0.8-3.8-2.5-4.9c-1.3-0.9-2.9-1.3-5.4-1.3c-0.5,0-2,0-3,0c-0.6,0-1,0-1.1,0c-0.7,0-1.9-0.1-1.9-0.9
		c0-0.8,1.4-1.7,4.2-2.6c0.1,0,0.2,0,0.3,0c1.1,0,2.7-0.2,4.2-1c2.2-1.3,3.5-3.6,3.5-6.5c0-1.5-0.4-2.8-1.2-3.9c0.2,0,0.4,0,0.6,0
		C252.8,60,253.9,59.6,255.1,58.7 M243.8,59c3.1,0,4.7,1.7,4.7,4.9c0,3.2-1.6,4.9-4.7,4.9c-3,0-4.8-1.8-4.8-4.7
		C239,60.8,240.7,59,243.8,59"/>
	<polygon class="st0" points="258.6,79.8 261.8,79.8 261.8,56.2 258.6,56.7 	"/>
	<path class="st0" d="M260.2,47.6c-1.3,0-2.3,1.1-2.3,2.4c0,1.3,1.1,2.4,2.3,2.4c1.3,0,2.3-1.1,2.3-2.4
		C262.5,48.6,261.5,47.6,260.2,47.6"/>
	<path class="st0" d="M276.1,77.3c-0.6,0.3-1.3,0.5-2.2,0.5c-1.9,0-2.6-0.9-2.6-3.3V59.2h4.7l1.1-2.6h-5.7c0-2.8,0.4-5.4,0.5-5.8
		l0.2-0.6l-3.4,0.7l0,0.2c-0.1,0.5-0.3,3.2-0.4,5.5h-2.9v2.6h2.9v15.8c0,2.3,0.6,3.7,1.9,4.5c0.6,0.4,1.6,0.9,3,0.9
		c1.4,0,2.6-0.3,3.6-0.8l0.3-0.1l-0.5-2.4L276.1,77.3z"/>
	<path class="st0" d="M297.1,78c-1.5-0.7-1.8-1.7-1.7-5.4l0.2-8.1c0-1.9,0-3.7-0.8-5.4c-1-2-2.9-3-5.7-3c-3,0-6,1-8.9,3.1l-0.3,0.2
		l1.6,2.4l0.3-0.3c1.5-1.3,4.3-2.7,6.9-2.7c1.3,0,2.2,0.4,3,1.2c0.6,0.7,0.8,1.7,0.8,3.9v1.7c-0.4,0-1,0-1.6,0
		c-7.5,0-11.7,2.9-11.7,8.1c0,2,0.7,6.6,7.4,6.6c2.4,0,4.4-0.8,6.2-2.7c0.5,1.4,1.4,2.4,2.8,2.9l0.3,0.1l1.7-2.3L297.1,78z
		 M292.3,74.6c-1.2,2-3.1,3.1-5.3,3.1c-2.9,0-4.4-1.4-4.4-4.3c0-2.3,0.8-5.4,8.2-5.4c0.5,0,1.2,0,1.6,0.1c0,0.5,0,1.1,0,1.9
		c0,1,0,2.1,0,2.6c0,0.1,0,0.3,0,0.5C292.3,73.8,292.3,74.3,292.3,74.6"/>
	<path class="st0" d="M306.6,77.6l-0.1-0.4l-0.4,0.2c-0.1,0-0.3,0.1-0.5,0.1c-0.6,0-1-0.1-1-2.1V51.8c0-3.7-0.6-5.3-0.6-5.3
		l-0.1-0.3l-3.1,0.6l0.1,0.4c0.1,0.3,0.5,1.7,0.5,4.5V76c0,2.8,1.2,4.2,3.5,4.2c0.8,0,1.2-0.1,2-0.4l0.3-0.1L306.6,77.6z"/>
	<polygon class="st0" points="117.6,74.1 117.6,64.5 127.5,64.5 127.5,58.7 117.5,58.7 117.5,50.7 130.2,50.7 131.1,45 110.5,45 
		110.5,79.8 131.1,79.8 130.2,74.1 	"/>
	<path class="st0" d="M103.5,52.6c-3.1-1.9-5.4-2.6-7.9-2.6c-2.8,0-4.8,1.6-4.8,3.9c0,1.8,0.9,2.6,3.8,3.4l4.1,1.1
		c5.6,1.5,8.6,5.1,8.6,10.1c0,6.9-5.6,11.5-14.1,11.5c-3.9,0-8.2-1.1-11.6-3.1l2.5-5.3c3.2,1.7,5.9,2.7,9.4,2.7c3.9,0,6-1.6,6-4.7
		c0-2.2-1.4-3.6-4.5-4.4l-3.8-1c-3.4-0.9-5.5-2.3-6.7-4.3c-0.9-1.5-1.4-3.3-1.4-5.2c0-6.2,5-10.5,12.2-10.5c4.2,0,8.4,1.3,11.4,3.4
		L103.5,52.6z"/>
	<path class="st0" d="M180,44.9l11,34.9h-7.5l-2.5-8.3h-10.2l-2.5,8.3H161l11.4-34.9H180z M179.3,65.7c0,0-1.2-3.7-1.9-7
		c-0.4-1.6-1.4-6.2-1.4-6.2s-1,4.1-1.7,6.7c-0.7,2.5-1.1,4.2-1.9,6.5H179.3z"/>
	<polygon class="st0" points="172.5,44.9 172.5,50.6 168.6,50.6 169.5,44.9 	"/>
	<path class="st0" d="M143.6,45c2,0,4.6,0.1,5.9,0.2c2.9,0.3,5.4,1.4,7.4,3.5c3.1,3.2,4.7,7.6,4.7,13.9c0,4.8-1.1,8.9-3.4,12.1
		c-2.1,2.9-5.1,4.8-8.3,5c-1.3,0.1-2.9,0.2-4.9,0.2h-8.3V45H143.6z M143.7,74.1h3.7c4.5,0,6.6-3.6,6.6-10.9c0-4.1-0.3-7.5-1.7-9.8
		c-1.1-1.9-2.7-2.9-5.4-2.9h-3.1V74.1z"/>
	<polygon class="st0" points="137.7,45 137.7,50.7 133.8,50.7 134.7,45 	"/>
	<polygon class="st0" points="137.7,79.8 137.7,74.1 133.8,74.1 134.7,79.8 	"/>
</g>
</svg>
