<?xml version="1.0" encoding="utf-8"?>
<!-- Generator: Adobe Illustrator 20.0.0, SVG Export Plug-In . SVG Version: 6.00 Build 0)  -->
<svg version="1.1" xmlns="http://www.w3.org/2000/svg" xmlns:xlink="http://www.w3.org/1999/xlink" x="0px" y="0px"
	 viewBox="0 0 320 124" style="enable-background:new 0 0 320 124;" xml:space="preserve">
<style type="text/css">
	.st0{fill:#DE007A;}
	.st1{fill:#FFFFFF;}
</style>
<g id="Layer_1">
	<rect class="st0" width="320" height="124"/>
	<path class="st1" d="M45.2,69.6c2.3,0.2,4.3,2.6,3.6,4.7c-0.5-0.1-1.1-0.2-1.6-0.2c-1.6,0-3.1,0.6-4,1.6H43c0,0-0.1,0.2-0.2,0.4
		c-0.2,0.2-0.2,0.4-0.3,0.6c-0.7,1.3-1.4,3.8,0.1,5.9c-3.5,4.9-6.4,10.9-3.2,15.9c-0.3,0.4-0.6,0.9-0.8,1.3c-0.9,1.6-1.3,4,0.9,7.5
		c0,0,1.1,1.4,0.3,2.8c0,0,3.6,0.2,3.3-3.7c0.4,1.2,1.7,2.9,4.8,4.4c0,0,2.4,2,0.5,4.2c0,0,6.4-5.5,1.2-9.4
		c-0.8-0.6-1.5-1.1-2.1-1.7h0.3c2.8,0.1,4.4-2.8,3.3-2.4H51c-1.1,0.4-2.1-0.4-3.9-2.2c-0.9-1-1.7-1.4-2.2-1.6
		c-1.4-0.9-3.1-1-4.6-0.2c-1.1-2.4-1.6-6.7,3.3-12.6c0.1-0.2,0.2-0.2,0.3-0.4c2,2.8,2.9,6,0,6.9c0,0,4-0.1,4.2-3.5
		c0.1-2.8-2.3-4.8-0.8-6.5c2.6-0.1,4.6-1.7,4.6-3.7c0-0.9-0.4-1.7-1.1-2.3c0.8-1.8,0.9-3.4,0.7-6.2c0.3-0.1,0.6-0.2,1-0.3
		c0.1,1.2,0.2,2.5,0.9,3.4c0.5,0.7,1.2,1.1,2.1,1.2c6,0.6,5.1,3.3,5.1,3.3c-0.7,0.8,0.8,1.8,0.8,1.8c4.2-1.7,2.7,4.1,1.5,2.8
		c-1.1-1.1-2.4,0.5-2.4,0.5c-1.1,1,0.9,4.4,1.6,4.7c0.7,0.3-0.1,2.6-0.1,2.6C63,90,65.6,89,65.6,89c0.5,1.1-0.7,3.1-0.7,3.1
		c1.6,0.9,2.6-1,2.6-1c0.4,0.2,1.6,3.5,1.6,3.5c0.3,1.4,1.9,1.7,1.9,1.7c-0.1-1,1.1-1.1,1.1-1.1s0.6-0.1,0.7-0.2
		c0.1-0.2,1.7-1.2,2.2-0.2c0.5,1.1,1.5,1.6,2,1.9c0.4,0.2,1.6-0.5,1.6-0.5c0.4,0.5,1.4,0.6,1.4,0.6c0.9-1.3,0.5-3.1,0.5-3.1
		c0.2-0.1,1.1,0.2,1.1,0.2c0.3-1.1,0.2-2.6,0.2-2.6h0.6c0.3-2.7-1.7-3.9-1.7-3.9c-0.5-2-4.4-0.3-4.2,0.3c0.2,0.7-0.3,1.9-0.3,1.9
		c-0.1,1-2.8-0.4-3-1.5c-0.2-1.1-1.7-3.1-1.7-3.1c0.6-0.1,1.1-2.3,1.1-2.3c1.3,0,3.3,2.6,3.3,2.6c0.6-0.7,0.2-2.9,0.2-2.9
		s0.1,1.1,2.3,1.1c2.2-0.1,3.3,1.1,3.3,1.1c0.2-1.8-2.2-3.7-2.2-3.7c1.2-0.5,0.8-1.5,0.8-1.5c-0.2,0.4-2.4,0.2-2.4,0.2
		c0.9-0.5,0.8-1.6,0.8-1.6c-0.2,0.3-1.1-0.3-1.1-0.3c1-0.3,0.8-1.7,0.8-1.7c-2.8,1-3-1.6-4.3-1.3C73,74.7,72.5,74,72.5,74
		c-3.8-6.9-11.1-10-13.5-11.1c3.6,0.4,6.5-0.2,6.5-0.2c-1.7-0.2-3.7-3.2-4.9-5.8c0.5-1.1,1.1-2,1.1-2C62.8,58.7,69,60,69,60
		c-1.2-0.9-2.2-2.3-2.7-5.7c0.5,0.2,1.1,1,1.1,1c-0.2-0.5,0.5-1.3,0.5-1.3l1.4,0.9c-0.9-0.9,0.3-2,0.3-2l0.5,0.2
		c0.5-0.7,1-1.5,1-1.5c0.6,0.4,1.8-0.2,1.8-0.2c0.8,0.2,1.5,0.2,1.5,0.2c0.1-0.2,0.1-1.3,0.1-1.8c0.3-0.2,0.5-0.3,0.6-0.4
		c0.4,1,1.2,2,1.2,2c0.2-0.2,1.3-1.8,1.7-2.3v0.1c0.2,0.2,0.3,0.2,0.5,0.1c0.2,1,1.3,2.2,1.3,2.2c0.4-0.7,1-2.4,1.1-2.8
		c0.1,0,0.2,0.1,0.2,0.1c1.1-2.4-1.3-2.8-2.1-2.9s-2.1-0.4-2.1-0.4c0.2-5-4.1-3.9-4.1-3.9c-1.3,2-6.8,4.4-6.8,4.4S66.2,46,66,46.4
		c-0.3-1.9-1.1-3.3-1.8-4.2c-0.1-0.4-0.2-0.8-0.2-1.3c0-0.8,0.5-1.3,0.8-1.6c0,0.2,0.8,1,0.8,1c-0.2-0.2-0.2-0.6-0.2-0.6
		c0.4-0.9,0.3-1.7,0.3-2v-0.4l-0.9,0.3l-0.4-0.7c-1.2,1.1-1.7,0.1-1.7,0.1c-0.6-2.3-0.1-3.7,0.7-4.7c1.1,1.2,3.2,4.1,3.9,5.5
		c0.9,1.7,4.2,3.7,6,2.5c1.8-1.1,0.3-4.6-1.9-5c-2.1-0.3-0.7,2-0.7,2c-0.7,1.9-2.6-0.9-2.6-0.9c-0.8-2-2.5-3.7-3.9-4.8
		c1.1-0.8,2.4-1,2.4-1c0.4,1.4,1.1,2.2,1.1,2.2l-0.3,1.1l1.1-0.2l0.2,0.2l-0.2,0.9l1-0.7c2.8-0.4,2.6-3,2.6-3l1.1-0.2
		c0,0-0.1-3.7-2.8-6c0,0,0-1.7-0.9-2.9c-0.9-1.2-3.2-2.3-3.7-2.8c-0.5-0.5-1.3-2-4.6-3.6c0,0-0.9-0.4-0.5-1.4c0,0-1.3,0.5-1.6,1.1
		c0,0-2.5-0.9-2.8-2c0,0-1.8,0.9-1.3,3.5c0,0-2.4,1.2-3.7,5.5c0,0-0.6,0.6-1.2-0.1l-1,2.8l-1-2.8c-0.7,0.7-1.2,0.1-1.2,0.1
		C45.5,18,43,16.7,43,16.7c0.3-2.9-1.3-3.8-1.3-3.8c-0.2,1-2.8,2-2.8,2c-0.2-0.6-1.6-1.1-1.6-1.1c0.4,1-0.5,1.4-0.5,1.4
		c-3.3,1.5-4.2,3-4.6,3.6c-0.5,0.5-2.8,1.6-3.7,2.8c-0.9,1.2-0.9,2.9-0.9,2.9c-2.7,2.3-2.8,6-2.8,6l1.1,0.2c0,0-0.2,2.6,2.6,3l1,0.7
		l-0.2-0.9l0.2-0.2l1.1,0.2l-0.3-1.1c0,0,0.7-0.9,1.1-2.2c0,0,1.2,0.2,2.4,1c-1.3,1.1-3,2.8-3.9,4.8c0,0-1.9,2.8-2.6,0.9
		c0,0,1.4-2.4-0.7-2c-2.1,0.3-3.7,3.8-1.9,5s5.2-0.8,6-2.5c0.7-1.4,2.8-4.3,3.9-5.5c0.8,1,1.3,2.5,0.7,4.7c0,0-0.4,1.1-1.7-0.1
		L33,37.3l-0.9-0.3v0.5c-0.1,0.2-0.1,1.1,0.3,2c0,0,0.1,0.3-0.2,0.6c0,0,0.7-0.7,0.8-1c0.2,0.2,0.8,0.8,0.8,1.6
		c0,0.5-0.1,0.9-0.2,1.3c-0.7,1-1.4,2.3-1.8,4.2c-0.2-0.3-0.2-0.6-0.2-0.6s-5.7-2.2-7-4.4c0,0-4.4-1.1-4.1,3.9c0,0-1.3,0.3-2.1,0.4
		c-0.8,0.1-3.3,0.5-2.1,2.9c0,0,0.1,0,0.2-0.1c0.1,0.4,0.6,2.1,1.1,2.8c0,0,1.1-1.2,1.3-2.2c0.1,0.1,0.2,0.1,0.5-0.1v-0.1
		c0.3,0.5,1.5,2.1,1.7,2.3c0,0,0.9-1,1.2-2c0.1,0.1,0.2,0.3,0.6,0.4c0,0.3-0.1,1.5,0.1,1.8c0,0,0.7-0.1,1.5-0.2c0,0,1.1,0.6,1.8,0.2
		c0,0,0.5,0.8,1,1.5l0.5-0.2c0,0,1.2,1.1,0.3,2l1.4-0.9c0,0,0.7,0.8,0.5,1.3c0,0,0.6-0.8,1.1-1c-0.4,3.4-1.4,4.9-2.7,5.7
		c0,0,6.3-1.1,7.4-5.1c0,0,0.5,0.7,1.1,2c-1.4,2.5-3.3,5.5-5.1,5.7c0,0,2.8,0.6,6.5,0.2c-2.4,1.1-9.6,4.2-13.5,11.1
		c0,0-0.5,0.7-1.8,0.4c-1.2-0.2-1.4,2.3-4.3,1.3c0,0-0.2,1.4,0.8,1.7c0,0-0.8,0.7-1.1,0.3c0,0-0.1,1.1,0.8,1.6c0,0-2.2,0.2-2.4-0.2
		c0,0-0.4,1,0.8,1.5c0,0-2.5,2-2.2,3.7c0,0,1.1-1.1,3.3-1.1c2.4,0.2,2.5-0.9,2.5-0.9s-0.2,2.3,0.2,2.9c0,0,2-2.6,3.3-2.6
		c0,0,0.5,2.2,1.1,2.3c0,0-1.5,2-1.7,3.1s-3,2.5-3,1.5c0,0-0.5-1.1-0.3-1.9c0.2-0.7-3.7-2.3-4.2-0.3c0,0-2,1.2-1.7,3.9h0.6
		c0,0-0.2,1.5,0.2,2.6c0,0,0.8-0.2,1.1-0.2c0,0-0.3,1.8,0.5,3.1c0,0,1-0.1,1.4-0.6c0,0,1.1,0.7,1.6,0.5c0.4-0.2,1.5-0.7,2-1.9
		c0.5-1.1,2.1,0.1,2.2,0.2C25,95,25.6,95,25.6,95s1.1,0.1,1.1,1.1c0,0,1.4-0.2,1.9-1.7c0,0,1.1-3.1,1.6-3.5c0,0,1,1.9,2.4,1.1
		c0,0-1.1-2-0.7-3.1c0,0,2.7,1.1,3.7,0.2c0,0-0.8-2.2-0.1-2.6s2.8-3.7,1.6-4.7c0,0-1.2-1.7-2.4-0.5c-1.1,1.1-2.6-4.6,1.5-2.8
		c0,0,1.5-1,0.8-1.8c0,0-0.9-2.8,5.1-3.3c0.9-0.1,1.6-0.5,2.1-1.2C44.8,71.6,45.1,70.8,45.2,69.6L45.2,69.6z M102.9,69.5h-0.8v-9.5
		h0.8V69.5z M112.6,69.5h-0.7l-4.5-8.1v8.1h-0.8v-9.5h0.8l4.5,8.1v-8.1h0.7V69.5z M121.5,60.6h-2.8v8.8H118v-8.8h-2.7v-0.7h6.2V60.6
		z M128.8,64.9h-3.7v3.8h4.3v0.7h-5v-9.5h4.9v0.7h-4.2v3.6h3.7V64.9z M133.1,64.8h2c0.2,0,0.5-0.1,0.8-0.2c0.2-0.1,0.4-0.2,0.5-0.4
		c0.2-0.2,0.2-0.4,0.3-0.6c0.1-0.2,0.1-0.5,0.1-0.8c0-0.3,0-0.6-0.1-0.9c-0.1-0.2-0.2-0.4-0.3-0.6c-0.2-0.2-0.3-0.3-0.6-0.4
		c-0.2-0.1-0.5-0.2-0.9-0.2H133L133.1,64.8L133.1,64.8L133.1,64.8z M135.3,65.4h-2.2v3.9h-0.7v-9.4h2.6c0.4,0,0.8,0.1,1.1,0.2
		c0.3,0.1,0.6,0.2,0.9,0.5c0.2,0.2,0.4,0.5,0.5,0.9c0.1,0.3,0.2,0.7,0.2,1.1c0,0.3,0,0.6-0.1,0.9c-0.1,0.2-0.2,0.5-0.3,0.7
		c-0.2,0.2-0.3,0.4-0.5,0.5c-0.2,0.2-0.4,0.2-0.6,0.3l2,4v0.1h-0.8C137.3,69.3,135.3,65.4,135.3,65.4z M146.9,69.5h-0.7l-4.6-8.1
		v8.1H141v-9.5h0.7l4.6,8.1v-8.1h0.7V69.5z M155,64.9h-3.7v3.8h4.2v0.7h-5v-9.5h5v0.7h-4.2v3.6h3.7V64.9z M164.2,60.6h-2.8v8.8h-0.7
		v-8.8H158v-0.7h6.2V60.6z M172.1,62c0,0.2,0.1,0.5,0.2,0.9c0.1,0.2,0.2,0.6,0.5,1l0.7-0.6c0.2-0.2,0.4-0.4,0.5-0.6
		c0.2-0.2,0.2-0.5,0.2-0.8c0-0.2,0-0.2-0.1-0.4s-0.1-0.2-0.2-0.3c-0.1-0.1-0.2-0.2-0.3-0.2c-0.1-0.1-0.2-0.1-0.4-0.1
		c-0.2,0-0.3,0-0.5,0.1c-0.2,0.1-0.2,0.2-0.3,0.3c-0.1,0.1-0.2,0.2-0.2,0.4V62 M173.1,68.9c0.3,0,0.6-0.1,1-0.2
		c0.2-0.2,0.5-0.3,0.8-0.7l-2.2-3.1l-0.1-0.1l-0.2,0.2c-0.2,0.2-0.4,0.4-0.5,0.6c-0.2,0.2-0.2,0.3-0.3,0.5c-0.1,0.2-0.1,0.3-0.2,0.4
		v0.3c0,0.2,0,0.5,0.1,0.7c0.1,0.2,0.2,0.4,0.3,0.6c0.1,0.2,0.3,0.2,0.5,0.4C172.6,68.8,172.9,68.9,173.1,68.9 M172.2,64.3
		c-0.2-0.2-0.2-0.4-0.3-0.6s-0.2-0.3-0.2-0.5c-0.1-0.2-0.2-0.3-0.2-0.5s-0.1-0.3-0.1-0.5c0-0.3,0-0.6,0.1-0.9
		c0.1-0.2,0.2-0.5,0.3-0.7c0.1-0.1,0.3-0.3,0.6-0.4c0.3-0.1,0.4-0.2,0.8-0.2c0.2,0,0.5,0.1,0.7,0.2c0.2,0.1,0.3,0.2,0.5,0.4
		c0.2,0.2,0.2,0.3,0.3,0.6c0.1,0.2,0.1,0.4,0.1,0.7c0,0.2,0,0.4-0.1,0.6c-0.1,0.2-0.2,0.3-0.2,0.5c-0.1,0.2-0.2,0.3-0.3,0.4
		c-0.1,0.2-0.2,0.2-0.3,0.3l-0.7,0.6l2.1,3c0.2-0.2,0.2-0.6,0.3-1c0.1-0.3,0.1-0.7,0.1-1.1h0.6c0,1.1-0.2,2-0.7,2.7l1,1.5h-0.9
		l-0.6-0.9c-0.2,0.3-0.6,0.6-1,0.8c-0.3,0.2-0.8,0.2-1.1,0.2s-0.7-0.1-1.1-0.2c-0.2-0.1-0.5-0.2-0.8-0.5c-0.2-0.2-0.3-0.5-0.5-0.8
		c-0.1-0.3-0.2-0.6-0.2-1.1c0-0.2,0-0.5,0.1-0.8c0.1-0.2,0.2-0.4,0.3-0.7c0.2-0.2,0.2-0.4,0.5-0.6C171.8,64.7,172,64.4,172.2,64.3z
		 M103.1,73.3l2.8,8.4l3-8.4h0.9v9.5h-0.8v-4.2l0.1-4.1l-2.9,8.3h-0.5l-2.9-8.2l0.1,4v4.2h-0.7v-9.5H103.1z M114.6,79.4h3.1
		l-1.6-5.1C116.1,74.4,114.6,79.4,114.6,79.4z M117.9,80.1h-3.6l-0.8,2.7h-0.8l3-9.5h0.7l3,9.5h-0.8
		C118.7,82.8,117.9,80.1,117.9,80.1z M123,78.2h2c0.2,0,0.5-0.1,0.8-0.2s0.4-0.2,0.5-0.4c0.2-0.2,0.2-0.4,0.3-0.6s0.1-0.5,0.1-0.8
		c0-0.3,0-0.6-0.1-0.9c-0.1-0.2-0.2-0.4-0.3-0.6c-0.2-0.2-0.3-0.3-0.6-0.4c-0.2-0.1-0.5-0.2-0.9-0.2h-1.9L123,78.2L123,78.2
		L123,78.2z M125.2,78.8H123v3.9h-0.7v-9.4h2.6c0.4,0,0.8,0.1,1.1,0.2c0.3,0.1,0.6,0.2,0.9,0.5c0.2,0.2,0.4,0.5,0.5,0.9
		c0.1,0.3,0.2,0.7,0.2,1.1c0,0.3,0,0.6-0.1,0.9c-0.1,0.2-0.2,0.5-0.3,0.7c-0.2,0.2-0.3,0.4-0.5,0.5c-0.2,0.2-0.4,0.2-0.6,0.3l2,4
		v0.1h-0.8C127.2,82.6,125.2,78.8,125.2,78.8z M132.8,78.1l-1.1,1.3v3.4h-0.8v-9.5h0.8v5.1l1-1.3l2.9-3.7h1l-3.3,4.3l3.6,5.3h-1
		L132.8,78.1z M144,78.3h-3.6v3.8h4.3v0.7h-5v-9.5h4.9V74h-4.2v3.6h3.6V78.3z M153.2,74h-2.8v8.8h-0.7V74H147v-0.7h6.2V74z
		 M157,82.8h-0.8v-9.5h0.8V82.8z M166.6,82.8h-0.8l-4.5-8.1v8.1h-0.8v-9.5h0.8l4.5,8.1v-8.1h0.8V82.8z M176,81.7l-0.3,0.3
		c-0.2,0.2-0.3,0.2-0.5,0.4c-0.2,0.1-0.5,0.2-0.8,0.3c-0.3,0.1-0.7,0.2-1.1,0.2c-0.4,0-0.9-0.1-1.3-0.2c-0.3-0.2-0.7-0.4-1-0.7
		c-0.2-0.3-0.5-0.7-0.6-1.1c-0.2-0.4-0.2-1.1-0.2-1.7V77c0-0.6,0.1-1.1,0.2-1.6c0.2-0.4,0.3-0.9,0.6-1.1c0.2-0.3,0.6-0.5,1-0.7
		c0.3-0.2,0.8-0.2,1.3-0.2c0.4,0,0.8,0.1,1.1,0.2c0.3,0.1,0.6,0.2,0.9,0.5c0.2,0.2,0.4,0.5,0.5,0.9c0.2,0.3,0.2,0.7,0.2,1.1h-0.7
		c0-0.3-0.1-0.6-0.2-0.9c-0.1-0.2-0.2-0.4-0.3-0.6c-0.2-0.2-0.3-0.3-0.6-0.4c-0.2-0.1-0.5-0.2-0.9-0.2c-0.8,0-1.3,0.2-1.8,0.8
		c-0.3,0.5-0.5,1.2-0.5,2.2v2.2c0,0.5,0.1,1,0.2,1.3s0.2,0.7,0.4,1c0.2,0.2,0.4,0.4,0.8,0.6c0.2,0.2,0.6,0.2,1,0.2
		c0.2,0,0.5,0,0.8-0.1c0.2-0.1,0.4-0.2,0.6-0.2c0.2-0.1,0.2-0.2,0.4-0.2c0.1-0.1,0.2-0.2,0.2-0.2v-2.5h-2v-0.7h2.8v3.4H176V81.7z
		 M110.3,50.9c0-0.3,0-0.7-0.1-1c-0.1-0.2-0.2-0.5-0.4-0.8c-0.2-0.2-0.5-0.5-0.9-0.7c-0.3-0.2-0.9-0.4-1.6-0.7
		c-0.8-0.2-1.5-0.6-2.2-1c-0.7-0.3-1.3-0.8-1.9-1.3c-0.5-0.5-1-1.1-1.2-1.8c-0.3-0.7-0.4-1.4-0.4-2.3s0.2-1.6,0.4-2.3
		c0.3-0.7,0.8-1.3,1.3-1.8c0.6-0.5,1.2-0.9,2-1.1c0.8-0.2,1.7-0.4,2.7-0.4s1.9,0.2,2.7,0.4c0.8,0.3,1.5,0.7,2,1.3
		c0.5,0.5,1,1.2,1.3,2c0.2,0.8,0.4,1.6,0.4,2.6h-4.1c0-0.4,0-0.8-0.2-1.1c-0.1-0.3-0.2-0.7-0.4-0.9c-0.2-0.2-0.4-0.4-0.7-0.6
		c-0.2-0.2-0.6-0.2-1.1-0.2c-0.3,0-0.7,0.1-1.1,0.2c-0.2,0.1-0.5,0.2-0.7,0.5c-0.2,0.2-0.3,0.4-0.4,0.8c-0.1,0.2-0.2,0.6-0.2,0.9
		c0,0.3,0.1,0.6,0.2,0.9c0.2,0.2,0.3,0.5,0.6,0.8c0.2,0.2,0.6,0.4,1,0.6s0.8,0.4,1.2,0.6c1,0.3,1.8,0.7,2.5,1.1
		c0.7,0.4,1.3,0.9,1.8,1.4c0.4,0.5,0.8,1.1,1.1,1.8c0.2,0.7,0.3,1.4,0.3,2.3s-0.2,1.7-0.4,2.4s-0.7,1.3-1.2,1.8s-1.2,0.9-2,1.1
		c-0.8,0.2-1.7,0.3-2.7,0.3c-0.9,0-1.8-0.2-2.6-0.4c-0.9-0.2-1.6-0.7-2.3-1.2c-0.7-0.5-1.2-1.2-1.6-2.1c-0.4-0.9-0.6-1.9-0.6-3h4.2
		c0,0.6,0.1,1.1,0.2,1.6c0.1,0.4,0.2,0.8,0.5,1.1c0.2,0.2,0.5,0.4,0.9,0.5s0.8,0.2,1.2,0.2c0.3,0,0.7-0.1,1-0.2
		c0.2-0.1,0.5-0.2,0.7-0.4c0.2-0.2,0.2-0.4,0.3-0.7C110.3,51.5,110.3,51.2,110.3,50.9 M130.6,39.1h-5.1v17.2h-4.2V39.1h-5v-3.4h14.2
		V39.1z M143.6,47.4h-6.4v5.5h7.6v3.5H133V35.8h11.8v3.4h-7.6v4.9h6.4V47.4z M151.3,45.3h2.3c0.8,0,1.4-0.2,1.9-0.8
		c0.4-0.5,0.6-1.2,0.6-2.2c0-0.4,0-0.9-0.2-1.2c-0.1-0.3-0.2-0.7-0.4-1c-0.2-0.2-0.4-0.4-0.7-0.6s-0.6-0.2-1.1-0.2h-2.4L151.3,45.3
		C151.4,45.3,151.3,45.3,151.3,45.3z M153.4,48.8h-2v7.5h-4.2V35.8h6.6c1.1,0,2,0.2,2.8,0.4c0.8,0.2,1.5,0.6,2,1.1
		c0.5,0.5,1,1.1,1.2,2c0.2,0.8,0.4,1.7,0.4,2.7c0,0.7-0.1,1.4-0.2,2c-0.2,0.6-0.3,1.1-0.6,1.6c-0.3,0.4-0.5,0.9-1,1.2
		c-0.3,0.3-0.8,0.6-1.2,0.9l3.6,8.5v0.2h-4.5L153.4,48.8z M177.2,49.5c-0.1,2.3-0.8,4.1-2,5.4c-1.2,1.2-2.9,1.8-5.1,1.8
		c-1.1,0-2.1-0.2-3-0.5c-0.9-0.3-1.7-1-2.2-1.7c-0.6-0.7-1.1-1.7-1.4-2.8c-0.3-1.1-0.4-2.4-0.4-3.8v-3.5c0-1.4,0.2-2.7,0.5-3.8
		c0.3-1,0.8-2,1.4-2.8c0.6-0.7,1.4-1.3,2.3-1.7s1.9-0.5,3-0.5c2.2,0,3.9,0.6,5.1,1.9c1.1,1.2,1.9,3,2,5.5h-4.2
		c0-0.7-0.1-1.3-0.2-1.9c-0.1-0.5-0.2-0.9-0.5-1.1c-0.3-0.2-0.5-0.5-0.9-0.6s-0.8-0.2-1.3-0.2c-0.5,0-1,0.1-1.4,0.3s-0.7,0.5-1,0.9
		c-0.2,0.4-0.4,1-0.5,1.7c-0.1,0.7-0.2,1.5-0.2,2.5v3.6c0,1,0.1,1.8,0.2,2.5c0.1,0.7,0.2,1.3,0.5,1.7c0.2,0.4,0.5,0.7,0.9,1
		c0.3,0.2,0.9,0.2,1.5,0.2c0.5,0,1-0.1,1.3-0.2s0.6-0.2,0.9-0.5c0.2-0.2,0.4-0.6,0.5-1.1c0.1-0.4,0.2-1.1,0.2-1.8h4L177.2,49.5
		L177.2,49.5z"/>
</g>
<g id="Layer_2">
</g>
</svg>
