<?xml version="1.0" encoding="utf-8"?>
<!-- Generator: Adobe Illustrator 20.0.0, SVG Export Plug-In . SVG Version: 6.00 Build 0)  -->
<svg version="1.1" xmlns="http://www.w3.org/2000/svg" xmlns:xlink="http://www.w3.org/1999/xlink" x="0px" y="0px"
	 viewBox="0 0 320 124" style="enable-background:new 0 0 320 124;" xml:space="preserve">
<style type="text/css">
	.st0{fill:#DE007A;}
	.st1{fill:#FFFFFF;}
</style>
<g id="Layer_1">
	<rect class="st0" width="320" height="124"/>
	<path class="st1" d="M41.5,72.3c2,0.2,3.7,2.3,3.1,4.1c-0.5-0.1-1-0.2-1.4-0.2c-1.4,0-2.7,0.6-3.5,1.4h-0.1c0,0-0.1,0.2-0.2,0.4
		c-0.2,0.2-0.2,0.4-0.3,0.6c-0.6,1.2-1.3,3.4,0.1,5.2c-3,4.3-5.6,9.5-2.8,13.9c-0.3,0.4-0.6,0.8-0.7,1.2c-0.8,1.4-1.2,3.5,0.8,6.6
		c0,0,1,1.3,0.3,2.5c0,0,3.1,0.2,2.9-3.2c0.4,1.1,1.5,2.6,4.2,3.8c0,0,2.1,1.7,0.5,3.7c0,0,5.6-4.8,1.1-8.3c-0.7-0.6-1.4-1-1.9-1.5
		h0.3c2.5,0.1,3.8-2.5,2.9-2.1h-0.1c-1,0.4-1.9-0.4-3.4-2c-0.8-0.9-1.5-1.3-2-1.4c-1.3-0.8-2.7-0.9-4-0.2c-1-2.1-1.4-5.9,2.9-11.1
		c0.1-0.2,0.2-0.2,0.3-0.4c1.8,2.5,2.6,5.2,0,6.1c0,0,3.5-0.1,3.7-3c0.1-2.5-2-4.2-0.7-5.7c2.3-0.1,4-1.5,4-3.2c0-0.8-0.4-1.5-1-2
		c0.7-1.6,0.8-3,0.6-5.4c0.3-0.1,0.6-0.2,0.9-0.3c0.1,1.1,0.2,2.2,0.8,3c0.5,0.6,1.1,1,1.9,1.1c5.2,0.6,4.4,2.9,4.4,2.9
		c-0.6,0.7,0.7,1.6,0.7,1.6c3.7-1.5,2.4,3.6,1.4,2.5c-1-1-2.1,0.5-2.1,0.5c-1,0.9,0.8,3.8,1.4,4.1s-0.1,2.3-0.1,2.3
		c1,0.7,3.3-0.2,3.3-0.2c0.5,1-0.6,2.7-0.6,2.7c1.4,0.8,2.3-0.9,2.3-0.9c0.4,0.2,1.4,3,1.4,3c0.3,1.3,1.7,1.5,1.7,1.5
		c-0.1-0.9,1-1,1-1s0.6-0.1,0.6-0.2c0.1-0.2,1.5-1.1,2-0.2c0.5,1,1.4,1.4,1.7,1.7c0.4,0.2,1.4-0.5,1.4-0.5c0.4,0.5,1.3,0.6,1.3,0.6
		c0.8-1.2,0.5-2.7,0.5-2.7c0.2-0.1,1,0.2,1,0.2c0.3-1,0.2-2.3,0.2-2.3h0.6c0.3-2.4-1.5-3.4-1.5-3.4c-0.5-1.7-3.8-0.3-3.7,0.3
		c0.2,0.6-0.3,1.7-0.3,1.7c-0.1,0.9-2.5-0.4-2.7-1.4c-0.2-1-1.5-2.7-1.5-2.7c0.6-0.1,1-2,1-2c1.2,0,2.9,2.3,2.9,2.3
		c0.6-0.6,0.2-2.6,0.2-2.6s0.1,1,2,1c2-0.1,2.9,1,2.9,1c0.2-1.6-2-3.3-2-3.3c1.1-0.5,0.7-1.4,0.7-1.4c-0.2,0.4-2.1,0.2-2.1,0.2
		c0.8-0.5,0.7-1.4,0.7-1.4c-0.2,0.3-1-0.3-1-0.3c0.9-0.3,0.7-1.5,0.7-1.5c-2.5,0.9-2.7-1.4-3.7-1.2c-1.1,0.2-1.6-0.4-1.6-0.4
		c-3.4-6.1-9.7-8.8-11.9-9.8c3.1,0.4,5.7-0.2,5.7-0.2c-1.5-0.2-3.2-2.8-4.3-5.1c0.5-1,1-1.7,1-1.7c1,3.4,6.5,4.4,6.5,4.4
		c-1.1-0.8-2-2-2.4-5c0.5,0.2,1,0.9,1,0.9c-0.2-0.5,0.5-1.2,0.5-1.2l1.3,0.8c-0.8-0.8,0.3-1.7,0.3-1.7l0.5,0.2
		c0.5-0.6,0.9-1.4,0.9-1.4c0.6,0.4,1.6-0.2,1.6-0.2c0.7,0.2,1.4,0.2,1.4,0.2c0.1-0.2,0.1-1.2,0.1-1.6c0.3-0.2,0.5-0.3,0.6-0.4
		c0.4,0.9,1.1,1.7,1.1,1.7c0.2-0.2,1.2-1.6,1.5-2v0.1c0.2,0.2,0.3,0.2,0.5,0.1c0.2,0.9,1.2,2,1.2,2c0.4-0.6,0.9-2.1,1-2.5
		c0.1,0,0.2,0.1,0.2,0.1c1-2.1-1.2-2.5-1.9-2.6c-0.7-0.1-1.9-0.4-1.9-0.4c0.2-4.4-3.6-3.4-3.6-3.4c-1.2,1.8-6,3.8-6,3.8
		S60,51.6,59.8,52c-0.3-1.7-1-2.9-1.6-3.7c-0.1-0.4-0.2-0.7-0.2-1.2c0-0.7,0.5-1.2,0.7-1.4c0,0.2,0.7,0.9,0.7,0.9
		c-0.2-0.2-0.2-0.6-0.2-0.6c0.4-0.8,0.3-1.5,0.3-1.7v-0.4l-0.8,0.3l-0.4-0.6c-1.1,1-1.5,0.1-1.5,0.1c-0.6-2-0.1-3.3,0.6-4.1
		c1,1.1,2.8,3.6,3.4,4.8c0.8,1.5,3.7,3.2,5.2,2.2c1.6-1,0.3-4-1.7-4.4c-1.9-0.3-0.6,1.7-0.6,1.7c-0.6,1.7-2.3-0.8-2.3-0.8
		c-0.7-1.8-2.2-3.3-3.4-4.2c1-0.7,2.1-0.9,2.1-0.9c0.4,1.3,1,2,1,2l-0.3,1l1-0.2l0.2,0.2L62,41.6l0.9-0.6c2.5-0.4,2.3-2.7,2.3-2.7
		l1-0.2c0,0-0.1-3.2-2.5-5.2c0,0,0-1.5-0.8-2.6c-0.8-1.1-2.8-2-3.3-2.5c-0.4-0.4-1.2-1.8-4.1-3.1c0,0-0.8-0.4-0.5-1.3
		c0,0-1.2,0.5-1.4,1c0,0-2.2-0.8-2.4-1.7c0,0-1.6,0.8-1.2,3c0,0-2.1,1.1-3.2,4.8c0,0-0.6,0.6-1.1-0.1L44.8,33l-0.9-2.5
		c-0.6,0.6-1.1,0.1-1.1,0.1c-1.1-3.7-3.2-4.8-3.2-4.8c0.3-2.6-1.2-3.4-1.2-3.4c-0.2,0.9-2.4,1.7-2.4,1.7c-0.2-0.6-1.4-1-1.4-1
		c0.4,0.9-0.5,1.3-0.5,1.3c-2.9,1.4-3.7,2.7-4.1,3.1c-0.5,0.5-2.4,1.4-3.3,2.5C26,31.2,26,32.7,26,32.7c-2.4,2-2.5,5.2-2.5,5.2
		l1,0.2c0,0-0.2,2.3,2.3,2.7l0.9,0.6l-0.2-0.8l0.2-0.2l1,0.2l-0.3-1c0,0,0.6-0.8,1-2c0,0,1.1,0.2,2.1,0.9c-1.2,1-2.7,2.4-3.4,4.2
		c0,0-1.7,2.5-2.3,0.8c0,0,1.3-2.1-0.6-1.7c-1.9,0.3-3.2,3.4-1.7,4.4s4.5-0.7,5.2-2.2c0.6-1.3,2.4-3.7,3.4-4.8
		c0.7,0.9,1.2,2.2,0.6,4.1c0,0-0.4,1-1.5-0.1l-0.4,0.6L30,43.6v0.5c-0.1,0.2-0.1,1,0.3,1.7c0,0,0.1,0.3-0.2,0.6c0,0,0.6-0.6,0.7-0.9
		c0.2,0.2,0.7,0.7,0.7,1.4c0,0.5-0.1,0.8-0.2,1.2c-0.6,0.9-1.3,2-1.6,3.7c-0.2-0.3-0.2-0.6-0.2-0.6s-5-1.9-6.1-3.8
		c0,0-3.8-1-3.6,3.4c0,0-1.2,0.3-1.9,0.4c-0.7,0.1-2.9,0.5-1.9,2.6c0,0,0.1,0,0.2-0.1c0.1,0.4,0.6,1.9,1,2.5c0,0,1-1.1,1.2-2
		c0.1,0.1,0.2,0.1,0.5-0.1V54c0.3,0.5,1.4,1.9,1.5,2c0,0,0.8-0.9,1.1-1.7c0.1,0.1,0.2,0.3,0.6,0.4c0,0.3-0.1,1.4,0.1,1.6
		c0,0,0.6-0.1,1.4-0.2c0,0,1,0.6,1.6,0.2c0,0,0.5,0.7,0.9,1.4l0.5-0.2c0,0,1.1,1,0.3,1.7l1.3-0.8c0,0,0.6,0.7,0.5,1.2
		c0,0,0.6-0.7,1-0.9c-0.4,3-1.3,4.3-2.4,5c0,0,5.5-1,6.5-4.4c0,0,0.5,0.6,1,1.7c-1.3,2.2-2.9,4.8-4.4,5c0,0,2.5,0.6,5.7,0.2
		c-2.1,1-8.4,3.7-11.9,9.8c0,0-0.5,0.6-1.6,0.4c-1.1-0.2-1.3,2-3.7,1.2c0,0-0.2,1.3,0.7,1.5c0,0-0.7,0.6-1,0.3c0,0-0.1,1,0.7,1.4
		c0,0-2,0.2-2.1-0.2c0,0-0.4,0.9,0.7,1.4c0,0-2.2,1.7-2,3.3c0,0,1-1,2.9-1c2.1,0.2,2.2-0.8,2.2-0.8s-0.2,2,0.2,2.6
		c0,0,1.7-2.3,2.9-2.3c0,0,0.5,2,1,2c0,0-1.4,1.8-1.5,2.7s-2.7,2.2-2.7,1.4c0,0-0.5-1-0.3-1.7c0.2-0.6-3.3-2-3.7-0.3
		c0,0-1.8,1.1-1.5,3.4h0.6c0,0-0.2,1.4,0.2,2.3c0,0,0.7-0.2,1-0.2c0,0-0.3,1.6,0.5,2.7c0,0,0.9-0.1,1.3-0.6c0,0,1,0.6,1.4,0.5
		c0.4-0.2,1.4-0.6,1.7-1.7c0.5-1,1.9,0.1,2,0.2c0.1,0.2,0.6,0.2,0.6,0.2s1,0.1,1,1c0,0,1.3-0.2,1.7-1.5c0,0,1-2.7,1.4-3
		c0,0,0.9,1.7,2.1,1c0,0-1-1.7-0.6-2.7c0,0,2.4,1,3.3,0.2c0,0-0.7-2-0.1-2.3c0.6-0.3,2.4-3.3,1.4-4.1c0,0-1.1-1.5-2.1-0.5
		c-1,1-2.3-4.1,1.4-2.5c0,0,1.4-0.9,0.7-1.6c0,0-0.8-2.4,4.4-2.9c0.8-0.1,1.4-0.5,1.9-1.1C41.2,74,41.4,73.4,41.5,72.3L41.5,72.3z
		 M92.2,72.2h-0.7v-8.4h0.7V72.2z M100.7,72.2h-0.6L96.2,65v7.1h-0.7v-8.4h0.7l3.9,7.1v-7.1h0.6V72.2z M108.5,64.4h-2.4v7.8h-0.6
		v-7.8h-2.4v-0.6h5.4V64.4z M114.9,68.2h-3.3v3.4h3.7v0.7H111v-8.4h4.3v0.6h-3.7v3.1h3.3V68.2z M118.7,68.1h1.7
		c0.2,0,0.5-0.1,0.7-0.2c0.2-0.1,0.4-0.2,0.5-0.4c0.2-0.2,0.2-0.4,0.3-0.6c0.1-0.2,0.1-0.5,0.1-0.7c0-0.3,0-0.6-0.1-0.8
		c-0.1-0.2-0.2-0.4-0.3-0.6c-0.2-0.2-0.3-0.3-0.6-0.4c-0.2-0.1-0.5-0.2-0.8-0.2h-1.7L118.7,68.1L118.7,68.1L118.7,68.1z M120.6,68.6
		h-2v3.4h-0.6v-8.3h2.3c0.4,0,0.7,0.1,1,0.2s0.6,0.2,0.8,0.5c0.2,0.2,0.4,0.5,0.5,0.8c0.1,0.3,0.2,0.6,0.2,1c0,0.3,0,0.6-0.1,0.8
		c-0.1,0.2-0.2,0.5-0.3,0.6c-0.2,0.2-0.3,0.4-0.5,0.5c-0.2,0.2-0.4,0.2-0.6,0.3l1.7,3.5V72h-0.7C122.4,72,120.6,68.6,120.6,68.6z
		 M130.9,72.2h-0.6l-4-7.1v7.1h-0.6v-8.4h0.6l4,7.1v-7.1h0.6V72.2z M137.9,68.2h-3.2v3.4h3.7v0.7H134v-8.4h4.4v0.6h-3.7v3.1h3.2
		V68.2z M146,64.4h-2.4v7.8h-0.6v-7.8h-2.4v-0.6h5.4V64.4z M152.9,65.6c0,0.2,0.1,0.5,0.2,0.8c0.1,0.2,0.2,0.6,0.5,0.9l0.6-0.6
		c0.2-0.2,0.4-0.4,0.5-0.6c0.2-0.2,0.2-0.5,0.2-0.7c0-0.2,0-0.2-0.1-0.4c-0.1-0.2-0.1-0.2-0.2-0.3c-0.1-0.1-0.2-0.2-0.3-0.2
		c-0.1-0.1-0.2-0.1-0.4-0.1c-0.2,0-0.3,0-0.5,0.1c-0.2,0.1-0.2,0.2-0.3,0.3c-0.1,0.1-0.2,0.2-0.2,0.4V65.6 M153.9,71.7
		c0.3,0,0.6-0.1,0.9-0.2c0.2-0.2,0.5-0.3,0.7-0.6l-2-2.7l-0.1-0.1l-0.2,0.2c-0.2,0.2-0.4,0.4-0.5,0.6c-0.2,0.2-0.2,0.3-0.3,0.5
		s-0.1,0.3-0.2,0.4v0.3c0,0.2,0,0.5,0.1,0.6c0.1,0.2,0.2,0.4,0.3,0.6c0.1,0.2,0.3,0.2,0.5,0.4C153.4,71.6,153.6,71.7,153.9,71.7
		 M153.1,67.6c-0.2-0.2-0.2-0.4-0.3-0.6c-0.1-0.2-0.2-0.3-0.2-0.5c-0.1-0.2-0.2-0.3-0.2-0.5c0-0.2-0.1-0.3-0.1-0.5
		c0-0.3,0-0.6,0.1-0.8c0.1-0.2,0.2-0.5,0.3-0.6c0.1-0.1,0.3-0.3,0.6-0.4c0.3-0.1,0.4-0.2,0.7-0.2c0.2,0,0.5,0.1,0.6,0.2
		c0.2,0.1,0.3,0.2,0.5,0.4c0.2,0.2,0.2,0.3,0.3,0.6c0.1,0.2,0.1,0.4,0.1,0.6c0,0.2,0,0.4-0.1,0.6c-0.1,0.2-0.2,0.3-0.2,0.5
		c-0.1,0.2-0.2,0.3-0.3,0.4c-0.1,0.2-0.2,0.2-0.3,0.3l-0.6,0.6l1.9,2.7c0.2-0.2,0.2-0.6,0.3-0.9s0.1-0.6,0.1-1h0.6
		c0,1-0.2,1.7-0.6,2.4l0.9,1.3h-0.8l-0.5-0.8c-0.2,0.3-0.6,0.6-0.9,0.7c-0.3,0.2-0.7,0.2-1,0.2s-0.6-0.1-1-0.2
		c-0.2-0.1-0.5-0.2-0.7-0.5c-0.2-0.2-0.3-0.5-0.5-0.7c-0.1-0.3-0.2-0.6-0.2-1c0-0.2,0-0.5,0.1-0.7c0.1-0.2,0.2-0.4,0.3-0.6
		c0.2-0.2,0.2-0.4,0.5-0.6C152.7,68,152.9,67.8,153.1,67.6z M92.4,75.5l2.5,7.4l2.6-7.4h0.8v8.4h-0.7v-3.7l0.1-3.6l-2.6,7.3h-0.5
		l-2.6-7.2l0.1,3.5v3.7h-0.7v-8.4H92.4z M102.4,80.9h2.7l-1.4-4.4C103.8,76.5,102.4,80.9,102.4,80.9z M105.4,81.5h-3.1l-0.7,2.4
		h-0.7l2.7-8.4h0.6l2.7,8.4h-0.7C106.1,83.9,105.4,81.5,105.4,81.5z M109.8,79.8h1.7c0.2,0,0.5-0.1,0.7-0.2c0.2-0.1,0.4-0.2,0.5-0.4
		c0.2-0.2,0.2-0.4,0.3-0.6c0.1-0.2,0.1-0.5,0.1-0.7c0-0.3,0-0.6-0.1-0.8c-0.1-0.2-0.2-0.4-0.3-0.6c-0.2-0.2-0.3-0.3-0.6-0.4
		c-0.2-0.1-0.5-0.2-0.8-0.2h-1.7L109.8,79.8L109.8,79.8L109.8,79.8z M111.8,80.4h-2v3.4h-0.6v-8.3h2.3c0.4,0,0.7,0.1,1,0.2
		c0.3,0.1,0.6,0.2,0.8,0.5c0.2,0.2,0.4,0.5,0.5,0.8c0.1,0.3,0.2,0.6,0.2,1c0,0.3,0,0.6-0.1,0.8c-0.1,0.2-0.2,0.5-0.3,0.6
		c-0.2,0.2-0.3,0.4-0.5,0.5c-0.2,0.2-0.4,0.2-0.6,0.3l1.7,3.5v0.1h-0.7C113.5,83.7,111.8,80.4,111.8,80.4z M118.5,79.7l-1,1.2v3
		h-0.7v-8.4h0.7V80l0.9-1.2l2.6-3.3h0.9l-2.9,3.7l3.1,4.6h-0.9L118.5,79.7z M128.3,79.9h-3.2v3.4h3.7v0.6h-4.4v-8.4h4.3v0.6h-3.7
		v3.1h3.2V79.9z M136.4,76.1h-2.4v7.8h-0.6v-7.8H131v-0.6h5.4V76.1z M139.7,83.9h-0.7v-8.4h0.7V83.9z M148.2,83.9h-0.7l-3.9-7.1v7.1
		h-0.7v-8.4h0.7l3.9,7.1v-7.1h0.7V83.9z M156.4,82.9l-0.3,0.3c-0.2,0.2-0.3,0.2-0.5,0.4c-0.2,0.1-0.5,0.2-0.7,0.3
		c-0.3,0.1-0.6,0.2-1,0.2c-0.4,0-0.8-0.1-1.2-0.2c-0.3-0.2-0.6-0.4-0.9-0.6c-0.2-0.3-0.5-0.6-0.6-1c-0.2-0.4-0.2-1-0.2-1.5v-2
		c0-0.6,0.1-1,0.2-1.4c0.2-0.4,0.3-0.8,0.6-1c0.2-0.3,0.6-0.5,0.9-0.6c0.3-0.2,0.7-0.2,1.2-0.2c0.4,0,0.7,0.1,1,0.2s0.6,0.2,0.8,0.5
		c0.2,0.2,0.4,0.5,0.5,0.8c0.2,0.3,0.2,0.6,0.2,1h-0.6c0-0.3-0.1-0.6-0.2-0.8c-0.1-0.2-0.2-0.4-0.3-0.6c-0.2-0.2-0.3-0.3-0.6-0.4
		c-0.2-0.1-0.5-0.2-0.8-0.2c-0.7,0-1.2,0.2-1.6,0.7c-0.3,0.5-0.5,1.1-0.5,2v2c0,0.5,0.1,0.9,0.2,1.2s0.2,0.6,0.4,0.9
		c0.2,0.2,0.4,0.4,0.7,0.6c0.2,0.2,0.6,0.2,0.9,0.2c0.2,0,0.5,0,0.7-0.1s0.4-0.2,0.6-0.2c0.2-0.1,0.2-0.2,0.4-0.2
		c0.1-0.1,0.2-0.2,0.2-0.2v-2.2h-1.8V80h2.5v3h-0.2V82.9z M98.7,55.9c0-0.3,0-0.6-0.1-0.9c-0.1-0.2-0.2-0.5-0.4-0.7
		c-0.2-0.2-0.5-0.5-0.8-0.6c-0.3-0.2-0.8-0.4-1.4-0.6c-0.7-0.2-1.4-0.6-2-0.9c-0.6-0.3-1.2-0.7-1.7-1.2c-0.5-0.5-0.9-1-1.1-1.6
		c-0.3-0.6-0.4-1.3-0.4-2c0-0.8,0.2-1.4,0.4-2c0.3-0.6,0.7-1.2,1.2-1.6c0.6-0.5,1.1-0.8,1.8-1c0.7-0.2,1.5-0.4,2.4-0.4
		s1.7,0.2,2.4,0.4c0.7,0.3,1.4,0.6,1.8,1.2c0.5,0.5,0.9,1.1,1.2,1.8c0.2,0.7,0.4,1.4,0.4,2.3h-3.6c0-0.4,0-0.7-0.2-1
		c-0.1-0.3-0.2-0.6-0.4-0.8c-0.2-0.2-0.4-0.4-0.6-0.6c-0.2-0.2-0.6-0.2-1-0.2c-0.3,0-0.6,0.1-1,0.2c-0.2,0.1-0.5,0.2-0.6,0.5
		c-0.2,0.2-0.3,0.4-0.4,0.7c-0.1,0.2-0.2,0.6-0.2,0.8c0,0.3,0.1,0.6,0.2,0.8c0.2,0.2,0.3,0.5,0.6,0.7c0.2,0.2,0.6,0.4,0.9,0.6
		s0.7,0.4,1.1,0.6c0.9,0.3,1.6,0.6,2.2,1c0.6,0.4,1.2,0.8,1.6,1.3c0.4,0.5,0.7,1,1,1.6c0.2,0.6,0.3,1.3,0.3,2s-0.2,1.5-0.4,2.1
		c-0.2,0.6-0.6,1.2-1.1,1.6s-1.1,0.8-1.7,1c-0.7,0.2-1.5,0.3-2.4,0.3c-0.8,0-1.6-0.2-2.3-0.4c-0.8-0.2-1.4-0.6-2-1.1
		c-0.6-0.5-1.1-1.1-1.4-1.9c-0.4-0.8-0.6-1.7-0.6-2.7H94c0,0.6,0.1,1,0.2,1.4s0.2,0.7,0.5,1c0.2,0.2,0.5,0.4,0.8,0.5
		c0.3,0.1,0.7,0.2,1.1,0.2c0.3,0,0.6-0.1,0.9-0.2c0.2-0.1,0.5-0.2,0.6-0.4c0.2-0.2,0.2-0.4,0.3-0.6C98.7,56.4,98.7,56.2,98.7,55.9
		 M116.5,45.6H112v15.1h-3.7V45.6H104v-3h12.5V45.6z M127.9,52.8h-5.6v4.8h6.7v3h-10.4V42.6h10.4v3h-6.7v4.3h5.6V52.8z M134.7,51h2
		c0.7,0,1.3-0.2,1.7-0.7c0.4-0.5,0.6-1.1,0.6-2c0-0.4,0-0.8-0.2-1.1c-0.1-0.3-0.2-0.6-0.4-0.9c-0.2-0.2-0.4-0.4-0.6-0.6
		c-0.2-0.2-0.6-0.2-1-0.2h-2.1L134.7,51C134.7,51,134.7,51,134.7,51z M136.5,54h-1.8v6.6h-3.7v-18h5.8c1,0,1.7,0.2,2.4,0.4
		c0.7,0.2,1.4,0.6,1.8,1c0.5,0.5,0.9,1,1.1,1.7c0.2,0.7,0.4,1.5,0.4,2.4c0,0.6-0.1,1.3-0.2,1.8c-0.2,0.6-0.3,1-0.6,1.4
		c-0.3,0.4-0.5,0.8-0.9,1.1c-0.3,0.3-0.7,0.6-1.1,0.8l3.1,7.4v0.2h-3.9L136.5,54z M157.4,54.6c-0.1,2-0.7,3.6-1.7,4.7
		c-1,1.1-2.6,1.6-4.5,1.6c-1,0-1.9-0.2-2.7-0.5c-0.8-0.3-1.5-0.9-2-1.5c-0.6-0.6-1-1.5-1.3-2.4s-0.4-2.1-0.4-3.4v-3
		c0-1.3,0.2-2.4,0.5-3.4c0.3-0.9,0.7-1.8,1.2-2.4c0.6-0.6,1.3-1.1,2-1.5c0.8-0.3,1.7-0.5,2.7-0.5c2,0,3.4,0.6,4.4,1.7
		c1,1.1,1.7,2.7,1.7,4.8h-3.7c0-0.6-0.1-1.2-0.2-1.7c-0.1-0.5-0.2-0.8-0.5-1s-0.5-0.5-0.8-0.6c-0.3-0.1-0.7-0.2-1.2-0.2
		s-0.9,0.1-1.2,0.3s-0.6,0.5-0.9,0.8c-0.2,0.4-0.4,0.9-0.5,1.5s-0.2,1.4-0.2,2.2v3.1c0,0.9,0.1,1.6,0.2,2.2c0.1,0.7,0.2,1.1,0.5,1.5
		c0.2,0.4,0.5,0.6,0.8,0.9c0.3,0.2,0.8,0.2,1.4,0.2c0.5,0,0.9-0.1,1.2-0.2c0.3-0.1,0.6-0.2,0.8-0.5c0.2-0.2,0.4-0.6,0.5-1
		c0.1-0.4,0.2-1,0.2-1.6h3.5L157.4,54.6L157.4,54.6z"/>
</g>
<g id="Layer_2">
</g>
</svg>
