<?xml version="1.0" encoding="utf-8"?>
<!-- Generated by IcoMoon.io -->
<!DOCTYPE svg PUBLIC "-//W3C//DTD SVG 1.1//EN" "http://www.w3.org/Graphics/SVG/1.1/DTD/svg11.dtd">
<svg version="1.1" xmlns="http://www.w3.org/2000/svg" xmlns:xlink="http://www.w3.org/1999/xlink" width="112" height="16" viewBox="0 0 112 16">
<g transform="translate(0 0)">
	<path d="M8 1.602l-4.16 3.904h2.64v4.096h3.040v-4.096h2.641l-4.161-3.904zM15.472 10.835l-2.547-1.714h-1.57l2.72 2.086h-2.836c-0.082 0-0.154 0.042-0.192 0.106l-0.653 1.788h-4.787l-0.654-1.788c-0.036-0.065-0.11-0.106-0.192-0.106h-2.835l2.721-2.086h-1.571l-2.546 1.714c-0.379 0.226-0.606 0.749-0.504 1.159l0.449 2.459c0.102 0.411 0.553 0.748 1.001 0.748h13.050c0.45 0 0.9-0.337 1.002-0.748l0.449-2.459c0.103-0.411-0.124-0.933-0.503-1.159z" fill="#000000" />
</g>
<g transform="translate(32 0)">
	<path d="M15.472 10.835l-2.547-1.714h-1.57l2.72 2.086h-2.836c-0.082 0-0.154 0.042-0.192 0.106l-0.653 1.788h-4.787l-0.654-1.788c-0.036-0.065-0.11-0.106-0.192-0.106h-2.835l2.721-2.086h-1.571l-2.546 1.714c-0.379 0.226-0.606 0.749-0.504 1.159l0.449 2.459c0.102 0.411 0.553 0.748 1.001 0.748h13.050c0.45 0 0.9-0.337 1.002-0.748l0.449-2.459c0.103-0.411-0.124-0.933-0.503-1.159zM12.161 5.698h-2.641v-4.096h-3.040v4.096h-2.64l4.16 3.904 4.161-3.904z" fill="#000000" />
</g>
<g transform="translate(64 0)">
	<path d="M4.413 11.379c-1.81-1.946-1.778-4.996 0.102-6.889 0.77-0.774 1.731-1.237 2.731-1.389l-0.055-1.662c-1.403 0.17-2.762 0.797-3.838 1.88-2.519 2.538-2.549 6.632-0.098 9.226l-1.393 1.402 4.408 0.241-0.012-4.667-1.845 1.858zM9.73 1.812l0.012 4.667 1.846-1.858c1.81 1.946 1.778 4.996-0.102 6.889-0.77 0.775-1.731 1.237-2.732 1.389l0.055 1.661c1.404-0.17 2.762-0.797 3.838-1.881 2.518-2.537 2.55-6.632 0.098-9.225l1.393-1.402-4.408-0.239z" fill="#000000" />
</g>
<g transform="translate(96 0)">
	<path d="M13.249 2.75c-1.154-1.154-2.020-0.982-2.020-0.982l-8.661 8.661-0.808 3.81 3.81-0.808 8.66-8.66c0 0 0.174-0.866-0.982-2.022zM5.343 12.974l-1.298 0.28c-0.126-0.234-0.277-0.469-0.553-0.746-0.276-0.276-0.511-0.426-0.746-0.552l0.281-1.299 0.375-0.375c0 0 0.707 0.014 1.505 0.812 0.798 0.798 0.813 1.506 0.813 1.506l-0.377 0.374z" fill="#000000" />
</g>
</svg>
